<svg width="336" height="320" viewBox="0 0 336 320" fill="none" xmlns="http://www.w3.org/2000/svg">
<path d="M324.815 220.66L278.8 164.612C278.228 163.916 277.259 163.641 276.418 163.937L200.278 190.733C199.251 191.095 198.751 192.182 199.151 193.183L227.171 263.365C227.302 263.693 227.34 264.045 227.281 264.385L226.596 268.31C226.296 270.029 228.374 271.311 229.851 270.318L249.411 257.186C249.99 256.797 250.296 256.138 250.217 255.452L242.903 191.721C242.712 190.048 244.676 189.029 246.12 190.051L296.888 225.99C297.42 226.367 297.743 226.952 297.76 227.569L297.922 233.382C297.963 234.854 299.641 235.821 300.988 235.15L324.235 223.549C325.333 223.001 325.609 221.626 324.815 220.66Z" fill="white" stroke="white" stroke-width="7"/>
<path d="M78.7924 126.469L64.5954 203.34L142.432 177.681L78.7924 126.469Z" fill="#283F73"/>
<path d="M118.915 164.965C121.566 162.859 124.407 156.688 124.407 156.688L107.318 136.581C107.318 136.581 93.8686 128.963 92.4104 134.172C91.2911 138.171 99.2268 142.622 99.2268 142.622C99.2268 142.622 88.2788 141.873 87.6483 146.132C87.0008 150.507 98.5105 151.561 98.5105 151.561C98.5105 151.561 89.1065 152.408 89.2882 156.08C89.4744 159.843 99.3574 159.182 99.3574 159.182C99.3574 159.182 93.6327 160.542 92.8608 163.227C91.6961 167.279 104.493 165.011 104.493 165.011C104.493 165.011 97.4731 170.084 100.29 171.42C101.97 172.218 105.129 170.727 105.129 170.727C105.129 170.727 116.263 167.07 118.915 164.965Z" fill="white" stroke="white" stroke-width="0.5"/>
<ellipse cx="45.9995" cy="36.8184" rx="45.9995" ry="36.8184" transform="matrix(-0.922644 0.385653 0.44714 0.894464 186.989 32.0083)" fill="white"/>
<ellipse cx="4.371" cy="4.34268" rx="4.371" ry="4.34268" transform="matrix(-0.922644 0.385653 0.44714 0.894464 145.252 77.6294)" fill="#925948"/>
<ellipse cx="4.78728" cy="4.34268" rx="4.78728" ry="4.34268" transform="matrix(-0.922644 0.385653 0.44714 0.894464 173.678 65.75)" fill="#925948"/>
<ellipse cx="3.95471" cy="3.58743" rx="3.95471" ry="3.58743" transform="matrix(-0.922644 0.385653 0.44714 0.894464 164.358 81.4854)" fill="#925948"/>
<path d="M181.033 81.609C176.721 83.4115 174.853 87.9842 176.753 91.784C178.652 95.5837 183.656 97.2842 187.968 95.482C192.28 93.6796 194.148 89.1068 192.248 85.307C190.349 81.5072 185.345 79.8066 181.033 81.609Z" fill="#F5A1C3" stroke="#F5A1C3"/>
<path d="M147.563 97.9035C143.251 99.7059 141.383 104.279 143.283 108.078C145.182 111.878 150.186 113.579 154.498 111.776C158.81 109.974 160.678 105.401 158.779 101.601C156.879 97.8016 151.875 96.1011 147.563 97.9035Z" fill="#F5A1C3" stroke="#F5A1C3"/>
<path d="M179.533 92.061C173.247 102.478 167.93 104.34 155.965 101.912" stroke="#F5A1C3" stroke-width="4"/>
<path d="M195.438 202.379L297.125 157.066C298.54 156.435 298.66 154.577 297.306 153.729C282.503 144.454 217.893 104.579 203.969 106.339C188.218 108.331 110.037 131.823 108.984 135.542C107.931 139.262 122.009 161.598 125.728 161.027C128.971 160.528 160.479 151.212 168.487 148.837C169.522 148.53 170.656 149.066 171.07 150.049L192.601 201.261C193.054 202.339 194.367 202.856 195.438 202.379Z" fill="#E9644D"/>
<path d="M192.565 53.9443C195.478 52.9571 213.034 49.6799 223.195 47.8222C225.224 47.4514 225.378 44.6076 223.44 43.7985C217.889 41.4815 210.263 37.8904 205.252 33.8695C200.98 30.4416 191.321 13.0451 178.88 18.2456C163.261 24.7739 173.417 38.7763 173.417 38.7763C173.417 38.7763 151.103 30.3143 132.737 42.4566C115.465 53.8752 109.039 83.3539 117.537 81.8294C126.034 80.3049 144.394 81.9814 147.696 67.3012C147.902 66.386 147.994 65.4181 148.013 64.4673C148.053 62.5472 150.898 61.1084 152.548 62.2917C155.242 64.2235 158.534 66.2524 161.328 67.0009C167.24 68.5847 188.422 55.3479 192.565 53.9443Z" fill="#925948"/>
<path d="M192.565 53.9443C195.478 52.9571 213.034 49.6799 223.195 47.8222C225.224 47.4514 225.378 44.6076 223.44 43.7985C217.889 41.4815 210.263 37.8904 205.252 33.8695C200.98 30.4416 191.321 13.0451 178.88 18.2456C163.261 24.7739 173.417 38.7763 173.417 38.7763M192.565 53.9443C188.422 55.3479 167.24 68.5847 161.328 67.0009C158.534 66.2524 155.242 64.2235 152.548 62.2917C150.898 61.1085 148.053 62.5472 148.013 64.4673C147.994 65.4181 147.902 66.386 147.696 67.3012C144.394 81.9814 126.034 80.3049 117.537 81.8294C109.039 83.3539 115.465 53.8752 132.737 42.4566C151.103 30.3143 173.417 38.7763 173.417 38.7763M192.565 53.9443L173.417 38.7763" stroke="#925948" stroke-width="7"/>
</svg>
