<svg width="186" height="278" viewBox="0 0 186 278" fill="none" xmlns="http://www.w3.org/2000/svg">
<path d="M81.8579 93.0241L89.7827 80.0961L112.343 91.5039L103.892 103.476L81.8579 93.0241Z" fill="white"/>
<path d="M111.083 162.119L123.305 149.905C124.011 149.199 125.128 149.118 125.924 149.714L138.55 159.166C139.509 159.884 139.619 161.281 138.785 162.148L126.443 174.968C125.722 175.716 124.549 175.793 123.742 175.144L111.236 165.086C110.312 164.343 110.24 162.961 111.083 162.119Z" fill="white" stroke="white"/>
<ellipse cx="43.8144" cy="37.9225" rx="43.8144" ry="37.9225" transform="matrix(0.655828 0.754911 -0.762331 0.647188 114.656 0)" fill="white"/>
<path d="M74.4214 69.573C79.9661 71.487 90.3642 68.9861 93.5508 66.0516C96.7374 63.1171 90.8436 51.6801 100.648 49.0926C107.948 47.1663 111.234 54.2196 112.437 57.9503C112.805 59.0904 114.024 59.8104 115.165 59.4498C125.581 56.158 128.098 54.7495 139.618 51.1944C151.89 47.4071 153.121 38.9415 153.121 38.9415C153.121 38.9415 153.53 3.01453 104.834 14.8556C56.1384 26.6966 66.3568 61.5502 66.3568 61.5502C68.2578 67.4455 68.8735 67.658 74.3794 69.5586L74.4214 69.573Z" fill="#925948"/>
<path d="M13.6128 246.317L33.0452 245.567L33.0452 260.195C33.0452 261.513 34.3002 262.489 35.5929 262.228C40.3853 261.261 50.442 259.911 52.455 265.063C58.5444 280.65 21.7759 276.906 13.0238 275.806C11.9779 275.675 11.253 274.743 11.3403 273.692L13.6128 246.317Z" fill="white" stroke="white"/>
<path d="M151.171 148.323L186 176.042L157.337 211.238L122.507 183.518L151.171 148.323Z" fill="#FAD062"/>
<path d="M131.782 178.612C131.782 178.612 127.426 173.372 126.543 171.531L122.802 170.474L134.027 156.84L135.541 160.179C135.598 160.305 135.669 160.426 135.752 160.538L136.632 161.731C137.011 162.244 137.612 162.547 138.254 162.569C140.517 162.646 145.747 162.994 145.558 164.554C145.267 166.943 139.628 166.744 139.628 166.744C139.628 166.744 144.717 170.262 144.952 172.252C145.247 174.758 136.874 169.971 136.874 169.971C136.874 169.971 145.035 175.954 144.158 177.805C143.259 179.702 134.513 172.737 134.513 172.737C134.513 172.737 139.666 178.375 139.479 179.985C139.198 182.414 131.613 174.263 131.613 174.263C131.613 174.263 135.03 180.542 133.911 180.226C133.008 179.971 131.782 178.612 131.782 178.612Z" fill="white" stroke="white"/>
<path d="M60.3106 170.274L13.442 152.473C7.06612 176.594 7.44913 176.748 16.6376 192.787C16.6376 192.787 10.3909 242.295 13.1107 244.119C15.8305 245.944 26.6425 248.888 32.2511 245.405C37.8598 241.921 60.3106 170.274 60.3106 170.274Z" fill="#283F73" stroke="#283F73"/>
<path d="M50.4057 180.214L10.7132 152.397C7.97607 150.479 7.87583 146.462 10.5133 144.388L81.0069 88.9302C82.7665 87.5459 85.2276 87.4904 87.0364 88.7942L104.238 101.193C106.649 102.931 107.004 106.38 105 108.59L103.395 110.36C101.678 112.253 101.658 115.126 103.349 117.028L133.893 151.382C135.825 153.555 135.486 156.919 133.156 158.682L119.05 169.358C117.05 170.872 114.242 170.682 112.48 168.912L95.954 152.319C94.1118 150.47 91.1465 150.356 89.1525 152.059L56.5379 179.911C54.797 181.398 52.273 181.522 50.4057 180.214Z" fill="#F5A1C3"/>
<ellipse cx="4.46762" cy="4.42407" rx="4.46762" ry="4.42407" transform="matrix(0.962685 0.270623 -0.276454 0.961027 130.376 57.8608)" fill="#925948"/>
<ellipse cx="3.97122" cy="3.44094" rx="3.97122" ry="3.44094" transform="matrix(0.962685 0.270623 -0.276454 0.961027 149.903 65.3926)" fill="#925948"/>
<path d="M127.459 76.9639C131.684 78.1517 134.128 82.4972 132.93 86.6627C131.732 90.8282 127.34 93.2522 123.115 92.0644C118.89 90.8764 116.447 86.5312 117.645 82.3658C118.843 78.2004 123.234 75.7763 127.459 76.9639Z" fill="#F5A1C3" stroke="#F5A1C3"/>
</svg>
