<svg width="400" height="400" viewBox="0 0 400 400" fill="none" xmlns="http://www.w3.org/2000/svg">
<circle cx="200" cy="200" r="200" fill="#A2BDF4"/>
<path d="M140.198 76L160.533 112.741L183.465 154.173L206.396 195.604H74L96.9313 154.173L119.863 112.741L140.198 76Z" fill="#2B885C"/>
<rect x="74" y="195.604" width="252" height="100.416" fill="#2B885C"/>
<path d="M232.619 252.528C232.619 256.811 231.776 261.053 230.136 265.011C228.497 268.968 226.094 272.564 223.065 275.593C220.036 278.622 216.441 281.025 212.483 282.664C208.525 284.303 204.284 285.147 200 285.147C195.716 285.147 191.475 284.303 187.517 282.664C183.56 281.025 179.964 278.622 176.935 275.593C173.906 272.564 171.503 268.968 169.864 265.011C168.225 261.053 167.381 256.811 167.381 252.528H176.962C176.962 255.553 177.557 258.549 178.715 261.344C179.873 264.139 181.57 266.679 183.709 268.818C185.849 270.958 188.388 272.655 191.184 273.813C193.979 274.97 196.975 275.566 200 275.566C203.026 275.566 206.021 274.97 208.817 273.813C211.612 272.655 214.151 270.958 216.291 268.818C218.43 266.679 220.127 264.139 221.285 261.344C222.443 258.549 223.039 255.553 223.039 252.528H232.619Z" fill="#283F73"/>
<circle cx="136.361" cy="233.66" r="18.868" fill="#283F73"/>
<circle cx="263.639" cy="233.66" r="18.868" fill="#283F73"/>
<rect x="206.396" y="118.213" width="119.604" height="77.3909" fill="#2B885C"/>
</svg>
