<svg width="161" height="158" viewBox="0 0 161 158" fill="none" xmlns="http://www.w3.org/2000/svg">
<path d="M99.5461 65.3808L90.2668 51.9798L101.771 44.3646C102.909 43.6108 103.073 41.9899 102.158 41.062C99.1834 38.0489 94.0677 31.9019 97.1834 27.8805C106.827 15.4341 120.085 42.8382 123.29 49.9822C123.707 50.9112 123.301 52.0265 122.38 52.5445L99.5461 65.3808Z" fill="white" stroke="white"/>
<path d="M19.5163 82.1991L33.6047 123.21C54.4338 112.012 54.3246 111.671 60.5043 95.699C60.5043 95.699 99.3491 68.3711 99.0954 65.491C98.8418 62.6109 94.7636 53.8848 89.0777 52.5255C83.3917 51.1663 19.5163 82.1991 19.5163 82.1991Z" fill="#F28448" stroke="#F28448"/>
<path d="M104.812 95.4195L103.423 78.6908L116.672 76.9204C118.02 76.7404 118.966 75.383 118.651 74.1589C117.589 70.0302 116.151 61.8093 120.735 59.4829C134.791 52.3506 132.811 84.0184 132.092 92.0825C132 93.1131 131.08 93.9578 130.008 94.0175L104.812 95.4195Z" fill="white" stroke="white"/>
<path d="M36.6839 76.6586L33.4347 123.216C56.265 122.407 50.2539 117.414 63.0676 105.419C63.0676 105.419 108.721 97.9219 109.883 95.1286C111.046 92.3353 111.79 82.3473 107.666 78.4644C103.543 74.5814 36.6839 76.6586 36.6839 76.6586Z" fill="#F28448" stroke="#F28448"/>
</svg>
