<svg width="218" height="144" viewBox="0 0 218 144" fill="none" xmlns="http://www.w3.org/2000/svg">
<path d="M64.74 78.551L60.67 107.1L33.1719 104.618C31.8206 104.496 30.5941 105.702 30.6859 107.024C31.1412 113.576 31.2614 130.158 21.1135 132.412C-8.68037 139.028 9.79032 82.7425 13.5297 72.0925C13.874 71.1122 14.9102 70.4959 15.9143 70.6582L64.74 78.551Z" fill="white" stroke="white"/>
<path d="M184.83 141.95L216.829 70.3613C174.389 62.6994 174.113 63.2851 145.717 78.3019C145.717 78.3019 58.5199 72.82 55.2679 77.0363C52.0159 81.2525 46.6833 97.6762 52.7506 105.804C58.818 113.931 184.83 141.95 184.83 141.95Z" fill="#283F73" stroke="#283F73"/>
<path d="M84.8519 29.8204L65.8486 54.2174L43.6959 40.9197C42.5595 40.2375 40.9064 40.7039 40.3252 41.8428C37.2656 47.8381 28.2526 63.4359 18.2044 61.3801C-10.9788 55.4094 35.7036 11.3344 44.5506 3.26596C45.3417 2.54447 46.6082 2.46578 47.4501 3.06798L84.8519 29.8204Z" fill="white" stroke="white"/>
<path d="M154.458 130.588L217.065 70.5358C184.873 46.4673 186.845 59.9196 154.357 62.1853C154.357 62.1853 82.6383 22.0907 77.5608 24.6269C72.4833 27.1631 58.9884 39.9945 59.7686 49.8486C60.5489 59.7026 154.458 130.588 154.458 130.588Z" fill="#283F73" stroke="#283F73"/>
</svg>
