<svg width="200" height="154" viewBox="0 0 200 154" fill="none" xmlns="http://www.w3.org/2000/svg">
<path d="M133.512 66.3948L142.819 88.3166L163.667 81.3545C164.952 80.9255 166.453 81.8001 166.715 83.0845C167.847 88.6314 171.32 101.129 179.634 101.023C204.462 100.706 178.598 60.2671 172.993 51.9211C172.411 51.0543 171.254 50.7227 170.311 51.1139L133.512 66.3948Z" fill="white" stroke="white"/>
<path d="M43.8486 142.647L3.19395 91.7556C35.285 77.7224 35.629 78.1361 61.3862 84.7517C61.3862 84.7517 129.504 64.0713 132.985 66.8125C136.466 69.5538 144.197 81.6052 141.105 89.199C138.013 96.7929 43.8486 142.647 43.8486 142.647Z" fill="#F5A1C3" stroke="#F5A1C3"/>
<path d="M99.4394 34.8406L119.729 50.6679L134.154 36.3012C135.09 35.369 136.793 35.4072 137.641 36.3537C141.559 40.7289 151.735 50.8738 159.109 47.4393C180.807 37.3339 135.483 11.4758 126.086 6.34551C125.144 5.83075 123.9 6.07137 123.225 6.86595L99.4394 34.8406Z" fill="white" stroke="white"/>
<path d="M65.5663 127.938L3.04542 91.9435C23.5039 66.7926 24.7988 77.8506 51.0946 73.5686C51.0946 73.5686 99.5506 28.2837 104.125 29.3483C108.698 30.4128 122.151 38.0818 123.627 46.0576C125.104 54.0334 65.5663 127.938 65.5663 127.938Z" fill="#F5A1C3" stroke="#F5A1C3"/>
</svg>
