<svg width="542" height="592" viewBox="0 0 542 592" fill="none" xmlns="http://www.w3.org/2000/svg">
<rect width="28.897" height="29.3599" transform="matrix(0.809235 0.587486 -0.713069 0.701094 203.14 22.3459)" fill="#F5A1C3"/>
<ellipse cx="18.9116" cy="17.6307" rx="18.9116" ry="17.6307" transform="matrix(0.809235 0.587486 -0.713069 0.701094 296.805 51.499)" fill="#E55B43"/>
<path d="M330.409 97.1601L328.904 107.865L335.696 116.84L323.242 119.134L315.14 127.548L308.948 118.261L297.149 114.487L305.776 106.454L306.586 95.7065L318.11 100.028L330.409 97.1601Z" fill="#FAD062"/>
<path d="M415.561 152.123L409.308 182.917L380.468 161.98L415.561 152.123Z" fill="#E55B43"/>
<path d="M325.335 138.818L341.745 150.731C341.745 150.731 349.347 139.628 358.469 146.251C367.592 152.873 356.432 161.394 356.432 161.394L364.391 167.172L385.116 146.794L346.061 118.441L325.335 138.818Z" fill="#F5A1C3"/>
<path d="M263.535 78.0831L255.428 58.2355L279.826 62.228L263.535 78.0831Z" fill="#FAD062"/>
<path d="M243.916 36.05L251.979 55.9104L227.589 51.8793L243.916 36.05Z" fill="#FAD062"/>
<ellipse cx="9.49267" cy="9.27032" rx="9.49267" ry="9.27032" transform="matrix(0.881501 0.508345 -0.616799 0.763137 251.167 45.0371)" fill="#FAD062"/>
<rect width="28.897" height="29.3599" transform="matrix(0.809235 0.587486 -0.713069 0.701094 437.016 162.71)" fill="#A2BDF4"/>
<ellipse cx="18.9116" cy="17.6307" rx="18.9116" ry="17.6307" transform="matrix(0.809235 0.587486 -0.713069 0.701094 497.447 219.935)" fill="#283F73"/>
<path d="M478.864 233.724L470.757 213.876L495.155 217.869L478.864 233.724Z" fill="#FAD062"/>
<path d="M458.309 191.691L466.371 211.551L441.982 207.52L458.309 191.691Z" fill="#FAD062"/>
<ellipse cx="9.49267" cy="9.27032" rx="9.49267" ry="9.27032" transform="matrix(0.881501 0.508345 -0.616799 0.763137 465.935 200.678)" fill="#FAD062"/>
<rect width="28.9678" height="29.2837" transform="matrix(-0.828025 -0.560691 -0.689092 0.724674 488.928 558.178)" fill="#F5A1C3"/>
<ellipse cx="18.958" cy="17.5849" rx="18.958" ry="17.5849" transform="matrix(-0.828025 -0.560691 -0.689092 0.724674 418.294 509.159)" fill="#E55B43"/>
<path d="M366.523 476.832L354.334 480.08L342.66 476.117L342.239 486.884L333.908 495.18L345.837 498.586L352.361 507.676L360.155 499.015L372.519 496.336L365.406 487.577L366.523 476.832Z" fill="#FAD062"/>
<path d="M287.761 425.948L253.044 436.887L282.626 456.918L287.761 425.948Z" fill="#E55B43"/>
<path d="M318.288 497.41L301.456 486.012C301.456 486.012 313.008 477.629 303.651 471.293C294.294 464.957 286.391 475.811 286.391 475.811L278.228 470.283L298.204 449.275L338.265 476.402L318.288 497.41Z" fill="#F5A1C3"/>
<path d="M407.503 531.293L432.072 534.317L423.017 514.81L407.503 531.293Z" fill="#FAD062"/>
<path d="M459.973 539.729L435.398 536.744L444.496 556.236L459.973 539.729Z" fill="#FAD062"/>
<ellipse cx="9.51539" cy="9.24686" rx="9.51539" ry="9.24686" transform="matrix(-0.749193 -0.635307 -0.778887 0.656123 448.208 535.39)" fill="#FAD062"/>
<rect width="28.9678" height="29.2837" transform="matrix(-0.828025 -0.560691 -0.689092 0.724674 272.111 410.719)" fill="#A2BDF4"/>
<ellipse cx="18.958" cy="17.5849" rx="18.958" ry="17.5849" transform="matrix(-0.828025 -0.560691 -0.689092 0.724674 202.627 359.464)" fill="#283F73"/>
<path d="M187.597 382.385L212.165 385.409L203.11 365.902L187.597 382.385Z" fill="#FAD062"/>
<path d="M240.064 390.822L215.488 387.837L224.587 407.33L240.064 390.822Z" fill="#FAD062"/>
<ellipse cx="9.51539" cy="9.24686" rx="9.51539" ry="9.24686" transform="matrix(-0.749193 -0.635307 -0.778887 0.656123 228.298 386.483)" fill="#FAD062"/>
<ellipse cx="19.521" cy="17.0129" rx="19.521" ry="17.0129" transform="matrix(0.910675 -0.413124 0.536387 0.843972 9.67188 388.302)" fill="#283F73"/>
<path d="M65.787 352.165L77.0668 357.204L89.4219 355.081L87.473 365.723L93.8496 375.138L81.3653 376.676L72.9511 384.619L67.1843 374.927L55.6075 370.42L64.5278 362.892L65.787 352.165Z" fill="#FAD062"/>
<path d="M167.033 304.287L198.789 320.299L165.288 335.496L167.033 304.287Z" fill="#283F73"/>
<path d="M109.061 364.533L128.064 355.913C128.064 355.913 118.545 345.922 129.109 341.129C139.673 336.337 145.071 348.198 145.071 348.198L154.287 344.017L139.243 320.346L94.0176 340.863L109.061 364.533Z" fill="#E55B43"/>
<rect width="29.8281" height="28.3311" transform="matrix(0.910675 -0.413124 0.536387 0.843972 191.143 290.561)" fill="#A2BDF4"/>
<ellipse cx="19.521" cy="17.0129" rx="19.521" ry="17.0129" transform="matrix(0.910675 -0.413124 0.536387 0.843972 281.88 255.498)" fill="#E55B43"/>
<path d="M341.83 231.237L353.11 236.276L365.465 234.153L363.516 244.795L369.893 254.21L357.408 255.749L348.994 263.691L343.227 253.999L331.651 249.493L340.571 241.965L341.83 231.237Z" fill="#F5A1C3"/>
<path d="M388.539 242.151L403.047 228.591C403.047 228.591 390.1 221.892 398.165 214.354C406.23 206.815 416.032 216.454 416.032 216.454L423.068 209.877L399.477 191.861L364.947 224.136L388.539 242.151Z" fill="#283F73"/>
<path d="M286.257 277.642L261.421 276.889L274.611 259.094L286.257 277.642Z" fill="#FAD062"/>
<path d="M232.776 277.977L257.61 278.77L244.38 296.543L232.776 277.977Z" fill="#FAD062"/>
<ellipse cx="9.79132" cy="8.95376" rx="9.79132" ry="8.95376" transform="matrix(0.851831 -0.496268 0.642701 0.787744 245.308 275.499)" fill="#FAD062"/>
</svg>
