<svg width="542" height="592" viewBox="0 0 542 592" fill="none" xmlns="http://www.w3.org/2000/svg">
<g filter="url(#filter0_f_117_630)">
<rect width="28.897" height="29.3599" transform="matrix(0.809235 0.587486 -0.713069 0.701094 203.142 22.3462)" fill="#F5A1C3"/>
<ellipse cx="18.9116" cy="17.6307" rx="18.9116" ry="17.6307" transform="matrix(0.809235 0.587486 -0.713069 0.701094 296.807 51.499)" fill="#E55B43"/>
<path d="M330.411 97.1601L328.906 107.865L335.698 116.84L323.244 119.134L315.142 127.548L308.95 118.261L297.151 114.487L305.778 106.454L306.588 95.7065L318.112 100.028L330.411 97.1601Z" fill="#FAD062"/>
<path d="M415.563 152.123L409.31 182.917L380.47 161.98L415.563 152.123Z" fill="#E55B43"/>
<path d="M325.337 138.818L341.747 150.731C341.747 150.731 349.348 139.628 358.471 146.251C367.593 152.873 356.434 161.394 356.434 161.394L364.393 167.172L385.118 146.794L346.062 118.441L325.337 138.818Z" fill="#F5A1C3"/>
<path d="M263.537 78.0831L255.43 58.2355L279.828 62.228L263.537 78.0831Z" fill="#FAD062"/>
<path d="M243.918 36.0505L251.981 55.9109L227.591 51.8798L243.918 36.0505Z" fill="#FAD062"/>
<ellipse cx="9.49267" cy="9.27032" rx="9.49267" ry="9.27032" transform="matrix(0.881501 0.508345 -0.616799 0.763137 251.169 45.0371)" fill="#FAD062"/>
<rect width="28.897" height="29.3599" transform="matrix(0.809235 0.587486 -0.713069 0.701094 437.018 162.71)" fill="#A2BDF4"/>
<ellipse cx="18.9116" cy="17.6307" rx="18.9116" ry="17.6307" transform="matrix(0.809235 0.587486 -0.713069 0.701094 497.449 219.935)" fill="#283F73"/>
<path d="M478.866 233.724L470.759 213.876L495.157 217.869L478.866 233.724Z" fill="#FAD062"/>
<path d="M458.311 191.691L466.373 211.551L441.984 207.52L458.311 191.691Z" fill="#FAD062"/>
<ellipse cx="9.49267" cy="9.27032" rx="9.49267" ry="9.27032" transform="matrix(0.881501 0.508345 -0.616799 0.763137 465.937 200.678)" fill="#FAD062"/>
<rect width="28.9678" height="29.2837" transform="matrix(-0.828025 -0.560691 -0.689092 0.724674 488.926 558.179)" fill="#F5A1C3"/>
<ellipse cx="18.958" cy="17.5849" rx="18.958" ry="17.5849" transform="matrix(-0.828025 -0.560691 -0.689092 0.724674 418.292 509.16)" fill="#E55B43"/>
<path d="M366.521 476.833L354.332 480.081L342.658 476.118L342.237 486.885L333.906 495.181L345.835 498.587L352.359 507.677L360.153 499.016L372.517 496.337L365.404 487.578L366.521 476.833Z" fill="#FAD062"/>
<path d="M287.76 425.949L253.043 436.888L282.625 456.919L287.76 425.949Z" fill="#E55B43"/>
<path d="M318.286 497.411L301.454 486.013C301.454 486.013 313.006 477.63 303.649 471.294C294.292 464.958 286.389 475.812 286.389 475.812L278.226 470.284L298.202 449.276L338.263 476.403L318.286 497.411Z" fill="#F5A1C3"/>
<path d="M407.501 531.294L432.07 534.318L423.015 514.81L407.501 531.294Z" fill="#FAD062"/>
<path d="M459.972 539.73L435.397 536.745L444.495 556.237L459.972 539.73Z" fill="#FAD062"/>
<ellipse cx="9.51539" cy="9.24686" rx="9.51539" ry="9.24686" transform="matrix(-0.749193 -0.635307 -0.778887 0.656123 448.206 535.391)" fill="#FAD062"/>
<rect width="28.9678" height="29.2837" transform="matrix(-0.828025 -0.560691 -0.689092 0.724674 272.109 410.719)" fill="#A2BDF4"/>
<ellipse cx="18.958" cy="17.5849" rx="18.958" ry="17.5849" transform="matrix(-0.828025 -0.560691 -0.689092 0.724674 202.625 359.465)" fill="#283F73"/>
<path d="M187.595 382.386L212.163 385.41L203.108 365.903L187.595 382.386Z" fill="#FAD062"/>
<path d="M240.062 390.822L215.486 387.837L224.585 407.33L240.062 390.822Z" fill="#FAD062"/>
<ellipse cx="9.51539" cy="9.24686" rx="9.51539" ry="9.24686" transform="matrix(-0.749193 -0.635307 -0.778887 0.656123 228.296 386.483)" fill="#FAD062"/>
<ellipse cx="19.521" cy="17.0129" rx="19.521" ry="17.0129" transform="matrix(0.910675 -0.413124 0.536387 0.843972 9.67285 388.303)" fill="#283F73"/>
<path d="M65.788 352.166L77.0678 357.205L89.4229 355.082L87.4739 365.724L93.8505 375.139L81.3662 376.677L72.9521 384.62L67.1853 374.928L55.6085 370.421L64.5287 362.893L65.788 352.166Z" fill="#FAD062"/>
<path d="M167.034 304.288L198.79 320.3L165.289 335.497L167.034 304.288Z" fill="#283F73"/>
<path d="M109.062 364.534L128.064 355.914C128.064 355.914 118.546 345.923 129.11 341.13C139.674 336.338 145.072 348.199 145.072 348.199L154.288 344.018L139.244 320.347L94.0186 340.864L109.062 364.534Z" fill="#E55B43"/>
<rect width="29.8281" height="28.3311" transform="matrix(0.910675 -0.413124 0.536387 0.843972 191.144 290.562)" fill="#A2BDF4"/>
<ellipse cx="19.521" cy="17.0129" rx="19.521" ry="17.0129" transform="matrix(0.910675 -0.413124 0.536387 0.843972 281.881 255.499)" fill="#E55B43"/>
<path d="M341.831 231.238L353.111 236.277L365.466 234.154L363.517 244.796L369.893 254.211L357.409 255.75L348.995 263.692L343.228 254L331.651 249.494L340.572 241.966L341.831 231.238Z" fill="#F5A1C3"/>
<path d="M388.54 242.152L403.048 228.592C403.048 228.592 390.1 221.893 398.166 214.354C406.231 206.816 416.033 216.455 416.033 216.455L423.069 209.878L399.478 191.862L364.948 224.137L388.54 242.152Z" fill="#283F73"/>
<path d="M286.258 277.643L261.422 276.89L274.612 259.095L286.258 277.643Z" fill="#FAD062"/>
<path d="M232.777 277.978L257.611 278.771L244.381 296.544L232.777 277.978Z" fill="#FAD062"/>
<ellipse cx="9.79132" cy="8.95376" rx="9.79132" ry="8.95376" transform="matrix(0.851831 -0.496268 0.642701 0.787744 245.309 275.5)" fill="#FAD062"/>
</g>
<defs>
<filter id="filter0_f_117_630" x="8.58887" y="14.3462" width="519.398" height="573.054" filterUnits="userSpaceOnUse" color-interpolation-filters="sRGB">
<feFlood flood-opacity="0" result="BackgroundImageFix"/>
<feBlend mode="normal" in="SourceGraphic" in2="BackgroundImageFix" result="shape"/>
<feGaussianBlur stdDeviation="4" result="effect1_foregroundBlur_117_630"/>
</filter>
</defs>
</svg>
