<svg width="184" height="135" viewBox="0 0 184 135" fill="none" xmlns="http://www.w3.org/2000/svg">
<g filter="url(#filter0_f_97_497)">
<path d="M20.5506 112.208L46.1593 75.862L14.4436 60.3911C7.67126 57.0876 10.1837 46.884 17.7157 47.1027L65.446 48.4886L90.1202 13.4687C93.1677 9.14337 99.7274 9.63262 102.1 14.3621L120.011 50.0729L166.494 51.4226C174.042 51.6417 175.943 62.0075 168.963 64.8897L134.566 79.0937L151.774 113.401C154.776 119.387 148.467 125.767 142.448 122.831L90.2777 97.3827L28.9447 122.71C22.4673 125.385 16.5142 117.937 20.5506 112.208Z" fill="#FAD062"/>
<path d="M166.494 51.4226L17.7157 47.1027C10.1837 46.884 7.67126 57.0876 14.4436 60.3911L142.448 122.831C148.467 125.767 154.776 119.387 151.774 113.401L102.1 14.3621C99.7274 9.63262 93.1677 9.14337 90.1202 13.4687L20.5506 112.208C16.5142 117.937 22.4673 125.385 28.9447 122.71L168.963 64.8897C175.943 62.0075 174.042 51.6417 166.494 51.4226Z" stroke="#FAD062"/>
</g>
<defs>
<filter id="filter0_f_97_497" x="0" y="0" width="183.799" height="134.071" filterUnits="userSpaceOnUse" color-interpolation-filters="sRGB">
<feFlood flood-opacity="0" result="BackgroundImageFix"/>
<feBlend mode="normal" in="SourceGraphic" in2="BackgroundImageFix" result="shape"/>
<feGaussianBlur stdDeviation="5" result="effect1_foregroundBlur_97_497"/>
</filter>
</defs>
</svg>
