<svg width="131" height="97" viewBox="0 0 131 97" fill="none" xmlns="http://www.w3.org/2000/svg">
<path d="M7.64212 84.7575L27.2273 55.9389L4.35477 44.3718C-2.3237 40.9943 0.243923 30.9031 7.72447 31.1283L43.3595 32.201L62.82 3.56588C65.8483 -0.890156 72.5646 -0.397948 74.9109 4.45199L89.0001 33.5749L123.607 34.6167C131.101 34.8423 133.044 45.0978 126.151 48.0486L101.175 58.7414L114.315 85.9016C117.231 91.9302 110.831 98.2191 104.855 95.1967L64.13 74.6014L16.1867 95.1271C9.75764 97.8796 3.7112 90.5416 7.64212 84.7575Z" fill="#FAD062"/>
<path d="M123.607 34.6167L7.72447 31.1283C0.243924 30.9031 -2.3237 40.9943 4.35477 44.3718L104.855 95.1967C110.831 98.2191 117.231 91.9302 114.315 85.9016L74.9109 4.45199C72.5646 -0.397948 65.8483 -0.890156 62.82 3.56588L7.64212 84.7575C3.7112 90.5416 9.75764 97.8796 16.1867 95.1271L126.151 48.0486C133.044 45.0978 131.101 34.8423 123.607 34.6167Z" stroke="#FAD062"/>
</svg>
