<svg width="176" height="266" viewBox="0 0 176 266" fill="none" xmlns="http://www.w3.org/2000/svg">
<path d="M107.899 2.51331C107.597 1.44973 106.481 0.805544 105.409 1.07527L94.521 3.81387C93.45 4.08327 92.8277 5.16236 93.131 6.22429L159.179 237.506C159.43 238.387 160.252 239.003 161.174 239.003L172.52 239.003C173.833 239.002 174.761 237.787 174.405 236.534L107.899 2.51331Z" fill="#925948"/>
<path d="M15.5906 25.733C15.2887 24.669 14.173 24.0244 13.1004 24.2942L2.2129 27.0328C1.14208 27.3021 0.519761 28.3809 0.822672 29.4427L60.1791 237.506C60.4302 238.386 61.2523 239.003 62.1748 239.003L73.5211 239.002C74.8334 239.002 75.7614 237.787 75.4059 236.534L15.5906 25.733Z" fill="#925948"/>
<rect width="13.6858" height="109.815" rx="2" transform="matrix(0.274814 0.961497 0.969792 -0.243933 0.395223 26.8606)" fill="#925948"/>
<rect width="13.6858" height="109.815" rx="2" transform="matrix(0.274814 0.961497 0.969792 -0.243933 24.8415 112.393)" fill="#925948"/>
<rect width="13.6858" height="109.815" rx="2" transform="matrix(0.274814 0.961497 0.969792 -0.243933 49.2888 197.926)" fill="#925948"/>
</svg>
