<svg width="138" height="794" viewBox="0 0 138 794" fill="none" xmlns="http://www.w3.org/2000/svg">
<path d="M105.666 828.139V882.863H44.5712V828.139H105.666Z" fill="#283F73"/>
<path d="M39.0116 820.196C42.082 820.196 44.571 822.677 44.571 825.737V936.458C44.571 939.519 42.082 942 39.0116 942H27.9945C24.9241 942 22.4351 939.519 22.4351 936.458V825.737C22.4351 822.677 24.9241 820.196 27.9945 820.196H39.0116Z" fill="#A2BDF4"/>
<path d="M115.16 822.844C118.23 822.844 120.719 825.325 120.719 828.386V882.618C120.719 885.679 118.23 888.16 115.16 888.16H111.226C108.156 888.16 105.666 885.679 105.666 882.618V828.386C105.666 825.325 108.156 822.844 111.226 822.844H115.16Z" fill="#A2BDF4"/>
<path d="M98.5828 898.752C99.5609 898.752 100.354 899.542 100.354 900.517V910.226C100.354 911.201 99.5609 911.991 98.5828 911.991C97.6048 911.991 96.812 911.201 96.812 910.226V900.517C96.812 899.542 97.6048 898.752 98.5828 898.752Z" fill="#283F73"/>
<path d="M88.1566 882.739V923.116C88.1566 929.674 82.8229 934.991 76.2435 934.991H44.4754V882.739H88.1566Z" fill="#F5A1C3"/>
<path d="M97.6974 900.516V910.225H87.9576V900.516H97.6974Z" fill="#283F73"/>
<path d="M22.8778 877.567C10.408 877.567 0.299146 867.49 0.299146 855.059C0.299146 842.629 10.408 832.552 22.8778 832.552C35.3477 832.552 45.4565 842.629 45.4565 855.059C45.4565 867.49 35.3477 877.567 22.8778 877.567Z" fill="#F5A1C3"/>
<path d="M16.2372 930.527C7.43491 930.527 0.299267 923.414 0.299267 914.639C0.299267 905.865 7.43491 898.752 16.2372 898.752C25.0394 898.752 32.1751 905.865 32.1751 914.639C32.1751 923.414 25.0394 930.527 16.2372 930.527Z" fill="#283F73"/>
<path d="M66.2643 923.464C61.1297 923.464 56.9672 919.315 56.9672 914.196C56.9672 909.078 61.1297 904.928 66.2643 904.928C71.399 904.928 75.5614 909.078 75.5614 914.196C75.5614 919.315 71.399 923.464 66.2643 923.464Z" fill="white"/>
<path d="M94.5102 843.946V867.697H70.6841V843.946H94.5102Z" fill="white"/>
<path d="M37.3276 743.401V822.571H29.3855V743.401H37.3276Z" fill="#925948"/>
<path d="M36.5334 598.521V677.691H28.5913V598.521H36.5334Z" fill="#925948"/>
<path d="M62.7421 669.774V756.86L15.0899 747.417V678.918L62.7421 669.774Z" fill="#F5A1C3"/>
<path d="M12.3102 695.899C5.51144 695.899 -1.17663e-06 690.405 -1.17663e-06 683.628C-1.17663e-06 676.851 5.51144 671.357 12.3102 671.357C19.1089 671.357 24.6203 676.851 24.6203 683.628C24.6203 690.405 19.1089 695.899 12.3102 695.899Z" fill="#E9644D"/>
<path d="M12.3102 756.86C5.51144 756.86 -1.17663e-06 751.366 -1.17663e-06 744.589C-1.17663e-06 737.811 5.51144 732.317 12.3102 732.317C19.1089 732.317 24.6203 737.811 24.6203 744.589C24.6203 751.366 19.1089 756.86 12.3102 756.86Z" fill="#E9644D"/>
<path d="M65.9189 661.065C70.3052 661.065 73.8609 664.609 73.8609 668.982V756.86C73.8609 761.232 70.3052 764.777 65.9189 764.777H64.3305C59.9442 764.777 56.3885 761.232 56.3885 756.86V668.982C56.3885 664.609 59.9442 661.065 64.3305 661.065H65.9189Z" fill="#2B885C"/>
<path d="M96.8928 680.066V711.733H73.8609V680.066H96.8928Z" fill="#E9644D"/>
<path d="M36.5334 423.557V502.726H28.5913V423.557H36.5334Z" fill="#925948"/>
<path d="M36.5334 96.5867V175.756H28.5913V96.5867H36.5334Z" fill="#925948"/>
<path d="M88.1566 714.108V745.776H73.8609V714.108H88.1566Z" fill="#F5A1C3"/>
<path d="M36.5334 321.428V242.259H28.5913V321.428H36.5334Z" fill="#925948"/>
<path d="M62.7421 250.175V163.089L15.0899 172.532V241.031L62.7421 250.175Z" fill="#A2BDF4"/>
<path d="M12.3102 224.05C5.51144 224.05 -1.17663e-06 229.544 -1.17663e-06 236.321C-1.17663e-06 243.098 5.51144 248.592 12.3102 248.592C19.1089 248.592 24.6203 243.098 24.6203 236.321C24.6203 229.544 19.1089 224.05 12.3102 224.05Z" fill="#283F73"/>
<path d="M12.3102 163.089C5.51144 163.089 -1.17663e-06 168.583 -1.17663e-06 175.36C-1.17663e-06 182.138 5.51144 187.632 12.3102 187.632C19.1089 187.632 24.6203 182.138 24.6203 175.36C24.6203 168.583 19.1089 163.089 12.3102 163.089Z" fill="#283F73"/>
<path d="M48.4464 331.72V351.946C48.4464 351.946 67.3192 354 67.3192 372.492C67.3192 390.984 48.4464 392.975 48.4464 392.975V410.889H81.803V331.72H48.4464Z" fill="#F5A1C3"/>
<path d="M122.307 372.888L81.803 401.684V344.092L122.307 372.888Z" fill="#2B885C"/>
<path d="M48.4464 321.428V423.557H16.6783V321.428H48.4464Z" fill="#F28448"/>
<path d="M12.3102 419.598C5.51144 419.598 -1.17663e-06 414.104 -1.17663e-06 407.327C-1.17663e-06 400.55 5.51144 395.056 12.3102 395.056C19.1089 395.056 24.6203 400.55 24.6203 407.327C24.6203 414.104 19.1089 419.598 12.3102 419.598Z" fill="#2B885C"/>
<path d="M12.3102 349.929C5.51144 349.929 -1.17663e-06 344.435 -1.17663e-06 337.658C-1.17663e-06 330.88 5.51144 325.386 12.3102 325.386C19.1089 325.386 24.6203 330.88 24.6203 337.658C24.6203 344.435 19.1089 349.929 12.3102 349.929Z" fill="#2B885C"/>
<path d="M36.5334 501.143V603.271H16.6783V501.143H36.5334Z" fill="#283F73"/>
<path d="M36.5334 0V101.337H16.6783V0H36.5334Z" fill="#283F73"/>
<path d="M12.3102 599.313C5.51144 599.313 -1.17663e-06 593.819 -1.17663e-06 587.041C-1.17663e-06 580.264 5.51144 574.77 12.3102 574.77C19.1089 574.77 24.6203 580.264 24.6203 587.041C24.6203 593.819 19.1089 599.313 12.3102 599.313Z" fill="#A2BDF4"/>
<path d="M12.3102 529.644C5.51144 529.644 -1.17663e-06 524.15 -1.17663e-06 517.372C-1.17663e-06 510.595 5.51144 505.101 12.3102 505.101C19.1089 505.101 24.6203 510.595 24.6203 517.372C24.6203 524.15 19.1089 529.644 12.3102 529.644Z" fill="#A2BDF4"/>
<path d="M11.5159 94.2116C5.15587 94.2116 -1.17663e-06 89.0721 -1.17663e-06 82.7321C-1.17663e-06 76.3921 5.15587 71.2525 11.5159 71.2525C17.876 71.2525 23.0319 76.3921 23.0319 82.7321C23.0319 89.0721 17.876 94.2116 11.5159 94.2116Z" fill="#F5A1C3"/>
<path d="M11.5159 29.2927C5.15587 29.2927 -1.17663e-06 24.1531 -1.17663e-06 17.8131C-1.17663e-06 11.4731 5.15587 6.33356 11.5159 6.33356C17.876 6.33356 23.0319 11.4731 23.0319 17.8131C23.0319 24.1531 17.876 29.2927 11.5159 29.2927Z" fill="#F5A1C3"/>
<path d="M80.2146 205.049C70.5648 205.049 62.7421 212.847 62.7421 222.466C62.7421 232.085 70.5648 239.883 80.2146 239.883C89.8643 239.883 97.687 232.085 97.687 222.466C97.687 212.847 89.8643 205.049 80.2146 205.049Z" fill="#2B885C"/>
<path d="M53.6087 193.965C46.3714 193.965 40.5044 199.814 40.5044 207.028C40.5044 214.243 46.3714 220.091 53.6087 220.091C60.8461 220.091 66.7131 214.243 66.7131 207.028C66.7131 199.814 60.8461 193.965 53.6087 193.965Z" fill="#2B885C"/>
<path d="M82.2001 167.048C71.4537 167.048 62.7421 175.909 62.7421 186.84C62.7421 197.771 71.4537 206.632 82.2001 206.632C92.9464 206.632 101.658 197.771 101.658 186.84C101.658 175.909 92.9464 167.048 82.2001 167.048Z" fill="#2B885C"/>
<path d="M109.324 539.846L113.718 542.181L110.711 550.394L106.609 547.846L109.324 539.846Z" fill="white"/>
<path d="M91.2783 557.398L94.168 559.992C94.7316 560.497 94.8718 561.323 94.504 561.969L92.7276 565.093C92.2401 565.95 91.0854 566.136 90.3255 565.481L87.3032 562.873C86.7057 562.358 86.5641 561.49 86.9696 560.83L88.8784 557.72C89.3898 556.887 90.5375 556.733 91.2783 557.398Z" fill="white"/>
<path d="M114.933 560.286C109.323 556.235 108.255 547.2 112.548 540.107C116.84 533.014 124.868 530.548 130.477 534.6C136.087 538.652 137.155 547.687 132.862 554.78C128.57 561.873 120.543 564.338 114.933 560.286Z" fill="white"/>
<path d="M115.487 535.148C115.377 537.195 117.063 540.444 118.254 541.231C119.445 542.018 122.486 538.934 124.147 541.976C125.103 543.726 124.182 545.189 123.228 546.117C122.536 546.789 122.221 547.901 122.716 548.696C124.268 551.191 124.989 552.075 126.9 555.264C128.847 558.514 131.161 558.648 131.748 558.626C131.843 558.622 131.933 558.602 132.023 558.57C133.264 558.132 142.579 554.294 135.158 540.075C127.22 524.868 117.277 531.665 117.277 531.665C115.61 532.873 115.598 533.1 115.488 535.132L115.487 535.148Z" fill="#925948"/>
<path d="M73.0667 562.895V586.646H36.5334V562.895H73.0667Z" fill="#F5A1C3"/>
<path d="M50.829 519.352V547.061H36.5334V519.352H50.829Z" fill="#F5A1C3"/>
<path d="M59.3379 524.926L59.5653 531.528H56.3562C55.3274 531.528 54.5593 532.492 54.6821 533.51C54.8915 535.244 54.9132 537.571 53.654 538.122C49.3078 540.025 49.9189 529.613 50.3043 525.615C50.386 524.768 51.1433 524.164 51.993 524.243L59.3379 524.926Z" fill="white"/>
<path d="M96.8928 575.166L76.6406 589.221V561.111L96.8928 575.166Z" fill="#283F73"/>
<path d="M79.4608 536.312L83.1198 524.998C83.9739 522.357 87.1972 521.349 89.365 523.046L108.851 538.294C110.159 539.318 110.675 541.059 110.139 542.647L108.371 547.89C107.992 549.014 106.693 549.537 105.654 548.983C104.754 548.503 103.626 548.825 103.103 549.712L96.6773 560.6C95.434 562.706 92.6134 563.229 90.7359 561.701L89.7107 560.867C88.268 559.692 87.8558 557.661 88.7218 555.994L90.7984 551.995C91.706 550.248 91.2058 548.116 89.6216 546.979L80.8943 540.715C79.5105 539.722 78.9324 537.946 79.4608 536.312Z" fill="#A2BDF4"/>
<path d="M122.307 557.353C121.43 557.353 120.719 556.644 120.719 555.77C120.719 554.895 121.43 554.186 122.307 554.186C123.185 554.186 123.896 554.895 123.896 555.77C123.896 556.644 123.185 557.353 122.307 557.353Z" fill="#925948"/>
<path d="M119.925 563.686C119.047 563.686 118.336 562.978 118.336 562.103C118.336 561.229 119.047 560.52 119.925 560.52C120.802 560.52 121.513 561.229 121.513 562.103C121.513 562.978 120.802 563.686 119.925 563.686Z" fill="#925948"/>
<path d="M114.762 556.561C113.227 556.561 111.983 555.143 111.983 553.394C111.983 551.646 113.227 550.228 114.762 550.228C116.298 550.228 117.542 551.646 117.542 553.394C117.542 555.143 116.298 556.561 114.762 556.561Z" fill="#F5A1C3"/>
<path d="M115.16 26.6307L100.332 34.8114L83.6119 44.0364L66.8916 53.2615V0L83.6119 9.22502L100.332 18.45L115.16 26.6307Z" fill="#F5A1C3"/>
<path d="M66.8916 0L66.8916 101.377H26.3672V0H66.8916Z" fill="#F5A1C3"/>
<path d="M43.9191 63.8109C42.1904 63.8109 40.4786 63.4715 38.8815 62.812C37.2844 62.1526 35.8332 61.186 34.6108 59.9674C33.3884 58.7489 32.4188 57.3023 31.7572 55.7102C31.0957 54.1182 30.7552 52.4118 30.7552 50.6885C30.7552 48.9653 31.0957 47.2589 31.7572 45.6668C32.4188 44.0747 33.3884 42.6281 34.6108 41.4096C35.8332 40.1911 37.2844 39.2245 38.8815 38.565C40.4786 37.9055 42.1904 37.5661 43.9191 37.5661V41.4204C42.6982 41.4204 41.4892 41.6601 40.3611 42.1259C39.2331 42.5916 38.2082 43.2743 37.3448 44.1349C36.4815 44.9956 35.7966 46.0173 35.3294 47.1418C34.8621 48.2662 34.6216 49.4714 34.6216 50.6885C34.6216 51.9056 34.8621 53.1108 35.3294 54.2353C35.7966 55.3597 36.4815 56.3815 37.3448 57.2421C38.2082 58.1027 39.2331 58.7854 40.3611 59.2512C41.4892 59.7169 42.6982 59.9567 43.9191 59.9567V63.8109Z" fill="#283F73"/>
<path d="M51.5336 32.6774C47.3283 32.6774 43.9192 29.279 43.9192 25.087C43.9192 20.8949 47.3283 17.4966 51.5336 17.4966C55.739 17.4966 59.1481 20.8949 59.1481 25.087C59.1481 29.279 55.739 32.6774 51.5336 32.6774Z" fill="#283F73"/>
<path d="M51.5336 83.8802C47.3283 83.8802 43.9192 80.4818 43.9192 76.2898C43.9192 72.0977 47.3283 68.6994 51.5336 68.6994C55.739 68.6994 59.1481 72.0977 59.1481 76.2898C59.1481 80.4818 55.739 83.8802 51.5336 83.8802Z" fill="#283F73"/>
<path d="M98.1237 53.2615V101.377L66.8916 101.377L66.8916 53.2615L98.1237 53.2615Z" fill="#F5A1C3"/>
<path d="M66.7131 258.884C70.6607 258.884 73.8609 255.694 73.8609 251.759V162.297C73.8609 158.362 70.6607 155.172 66.7131 155.172C62.7655 155.172 59.5653 158.362 59.5653 162.297V251.759C59.5653 255.694 62.7655 258.884 66.7131 258.884Z" fill="#283F73"/>
<path d="M105.666 828.139V882.863H44.5712V828.139H105.666Z" fill="#283F73"/>
<path d="M39.0116 820.196C42.082 820.196 44.571 822.677 44.571 825.737V936.458C44.571 939.519 42.082 942 39.0116 942H27.9945C24.9241 942 22.4351 939.519 22.4351 936.458V825.737C22.4351 822.677 24.9241 820.196 27.9945 820.196H39.0116Z" fill="#A2BDF4"/>
<path d="M115.16 822.844C118.23 822.844 120.719 825.325 120.719 828.386V882.618C120.719 885.679 118.23 888.16 115.16 888.16H111.226C108.156 888.16 105.666 885.679 105.666 882.618V828.386C105.666 825.325 108.156 822.844 111.226 822.844H115.16Z" fill="#A2BDF4"/>
<path d="M98.5828 898.752C99.5609 898.752 100.354 899.542 100.354 900.517V910.226C100.354 911.201 99.5609 911.991 98.5828 911.991C97.6048 911.991 96.812 911.201 96.812 910.226V900.517C96.812 899.542 97.6048 898.752 98.5828 898.752Z" fill="#283F73"/>
<path d="M88.1566 882.739V923.116C88.1566 929.674 82.8229 934.991 76.2435 934.991H44.4754V882.739H88.1566Z" fill="#F5A1C3"/>
<path d="M97.6974 900.516V910.225H87.9576V900.516H97.6974Z" fill="#283F73"/>
<path d="M22.8778 877.567C10.408 877.567 0.299146 867.49 0.299146 855.059C0.299146 842.629 10.408 832.552 22.8778 832.552C35.3477 832.552 45.4565 842.629 45.4565 855.059C45.4565 867.49 35.3477 877.567 22.8778 877.567Z" fill="#F5A1C3"/>
<path d="M16.2372 930.527C7.43491 930.527 0.299267 923.414 0.299267 914.639C0.299267 905.865 7.43491 898.752 16.2372 898.752C25.0394 898.752 32.1751 905.865 32.1751 914.639C32.1751 923.414 25.0394 930.527 16.2372 930.527Z" fill="#283F73"/>
<path d="M66.2643 923.464C61.1297 923.464 56.9672 919.315 56.9672 914.196C56.9672 909.078 61.1297 904.928 66.2643 904.928C71.399 904.928 75.5614 909.078 75.5614 914.196C75.5614 919.315 71.399 923.464 66.2643 923.464Z" fill="white"/>
<path d="M94.5102 843.946V867.697H70.6841V843.946H94.5102Z" fill="white"/>
<path d="M37.3276 743.401V822.571H29.3855V743.401H37.3276Z" fill="#925948"/>
<path d="M36.5334 598.521V677.691H28.5913V598.521H36.5334Z" fill="#925948"/>
<path d="M62.7421 669.774V756.86L15.0899 747.417V678.918L62.7421 669.774Z" fill="#F5A1C3"/>
<path d="M12.3102 695.899C5.51144 695.899 -1.17663e-06 690.405 -1.17663e-06 683.628C-1.17663e-06 676.851 5.51144 671.357 12.3102 671.357C19.1089 671.357 24.6203 676.851 24.6203 683.628C24.6203 690.405 19.1089 695.899 12.3102 695.899Z" fill="#E9644D"/>
<path d="M12.3102 756.86C5.51144 756.86 -1.17663e-06 751.366 -1.17663e-06 744.589C-1.17663e-06 737.811 5.51144 732.317 12.3102 732.317C19.1089 732.317 24.6203 737.811 24.6203 744.589C24.6203 751.366 19.1089 756.86 12.3102 756.86Z" fill="#E9644D"/>
<path d="M65.9189 661.065C70.3052 661.065 73.8609 664.609 73.8609 668.982V756.86C73.8609 761.232 70.3052 764.777 65.9189 764.777H64.3305C59.9442 764.777 56.3885 761.232 56.3885 756.86V668.982C56.3885 664.609 59.9442 661.065 64.3305 661.065H65.9189Z" fill="#2B885C"/>
<path d="M96.8928 680.066V711.733H73.8609V680.066H96.8928Z" fill="#E9644D"/>
<path d="M36.5334 423.557V502.726H28.5913V423.557H36.5334Z" fill="#925948"/>
<path d="M36.5334 96.5867V175.756H28.5913V96.5867H36.5334Z" fill="#925948"/>
<path d="M88.1566 714.108V745.776H73.8609V714.108H88.1566Z" fill="#F5A1C3"/>
<path d="M36.5334 321.428V242.259H28.5913V321.428H36.5334Z" fill="#925948"/>
<path d="M62.7421 250.175V163.089L15.0899 172.532V241.031L62.7421 250.175Z" fill="#A2BDF4"/>
<path d="M12.3102 224.05C5.51144 224.05 -1.17663e-06 229.544 -1.17663e-06 236.321C-1.17663e-06 243.098 5.51144 248.592 12.3102 248.592C19.1089 248.592 24.6203 243.098 24.6203 236.321C24.6203 229.544 19.1089 224.05 12.3102 224.05Z" fill="#283F73"/>
<path d="M12.3102 163.089C5.51144 163.089 -1.17663e-06 168.583 -1.17663e-06 175.36C-1.17663e-06 182.138 5.51144 187.632 12.3102 187.632C19.1089 187.632 24.6203 182.138 24.6203 175.36C24.6203 168.583 19.1089 163.089 12.3102 163.089Z" fill="#283F73"/>
<path d="M48.4464 331.72V351.946C48.4464 351.946 67.3192 354 67.3192 372.492C67.3192 390.984 48.4464 392.975 48.4464 392.975V410.889H81.803V331.72H48.4464Z" fill="#F5A1C3"/>
<path d="M122.307 372.888L81.803 401.684V344.092L122.307 372.888Z" fill="#2B885C"/>
<path d="M48.4464 321.428V423.557H16.6783V321.428H48.4464Z" fill="#F28448"/>
<path d="M12.3102 419.598C5.51144 419.598 -1.17663e-06 414.104 -1.17663e-06 407.327C-1.17663e-06 400.55 5.51144 395.056 12.3102 395.056C19.1089 395.056 24.6203 400.55 24.6203 407.327C24.6203 414.104 19.1089 419.598 12.3102 419.598Z" fill="#2B885C"/>
<path d="M12.3102 349.929C5.51144 349.929 -1.17663e-06 344.435 -1.17663e-06 337.658C-1.17663e-06 330.88 5.51144 325.386 12.3102 325.386C19.1089 325.386 24.6203 330.88 24.6203 337.658C24.6203 344.435 19.1089 349.929 12.3102 349.929Z" fill="#2B885C"/>
<path d="M36.5334 501.143V603.271H16.6783V501.143H36.5334Z" fill="#283F73"/>
<path d="M36.5334 0V101.337H16.6783V0H36.5334Z" fill="#283F73"/>
<path d="M12.3102 599.313C5.51144 599.313 -1.17663e-06 593.819 -1.17663e-06 587.041C-1.17663e-06 580.264 5.51144 574.77 12.3102 574.77C19.1089 574.77 24.6203 580.264 24.6203 587.041C24.6203 593.819 19.1089 599.313 12.3102 599.313Z" fill="#A2BDF4"/>
<path d="M12.3102 529.644C5.51144 529.644 -1.17663e-06 524.15 -1.17663e-06 517.372C-1.17663e-06 510.595 5.51144 505.101 12.3102 505.101C19.1089 505.101 24.6203 510.595 24.6203 517.372C24.6203 524.15 19.1089 529.644 12.3102 529.644Z" fill="#A2BDF4"/>
<path d="M11.5159 94.2116C5.15587 94.2116 -1.17663e-06 89.0721 -1.17663e-06 82.7321C-1.17663e-06 76.3921 5.15587 71.2525 11.5159 71.2525C17.876 71.2525 23.0319 76.3921 23.0319 82.7321C23.0319 89.0721 17.876 94.2116 11.5159 94.2116Z" fill="#F5A1C3"/>
<path d="M11.5159 29.2927C5.15587 29.2927 -1.17663e-06 24.1531 -1.17663e-06 17.8131C-1.17663e-06 11.4731 5.15587 6.33356 11.5159 6.33356C17.876 6.33356 23.0319 11.4731 23.0319 17.8131C23.0319 24.1531 17.876 29.2927 11.5159 29.2927Z" fill="#F5A1C3"/>
<path d="M80.2146 205.049C70.5648 205.049 62.7421 212.847 62.7421 222.466C62.7421 232.085 70.5648 239.883 80.2146 239.883C89.8643 239.883 97.687 232.085 97.687 222.466C97.687 212.847 89.8643 205.049 80.2146 205.049Z" fill="#2B885C"/>
<path d="M53.6087 193.965C46.3714 193.965 40.5044 199.814 40.5044 207.028C40.5044 214.243 46.3714 220.091 53.6087 220.091C60.8461 220.091 66.7131 214.243 66.7131 207.028C66.7131 199.814 60.8461 193.965 53.6087 193.965Z" fill="#2B885C"/>
<path d="M82.2001 167.048C71.4537 167.048 62.7421 175.909 62.7421 186.84C62.7421 197.771 71.4537 206.632 82.2001 206.632C92.9464 206.632 101.658 197.771 101.658 186.84C101.658 175.909 92.9464 167.048 82.2001 167.048Z" fill="#2B885C"/>
<path d="M109.324 539.846L113.718 542.181L110.711 550.394L106.609 547.846L109.324 539.846Z" fill="white"/>
<path d="M91.2783 557.398L94.168 559.992C94.7316 560.497 94.8718 561.323 94.504 561.969L92.7276 565.093C92.2401 565.95 91.0854 566.136 90.3255 565.481L87.3032 562.873C86.7057 562.358 86.5641 561.49 86.9696 560.83L88.8784 557.72C89.3898 556.887 90.5375 556.733 91.2783 557.398Z" fill="white"/>
<path d="M114.933 560.286C109.323 556.235 108.255 547.2 112.548 540.107C116.84 533.014 124.868 530.548 130.477 534.6C136.087 538.652 137.155 547.687 132.862 554.78C128.57 561.873 120.543 564.338 114.933 560.286Z" fill="white"/>
<path d="M115.487 535.148C115.377 537.195 117.063 540.444 118.254 541.231C119.445 542.018 122.486 538.934 124.147 541.976C125.103 543.726 124.182 545.189 123.228 546.117C122.536 546.789 122.221 547.901 122.716 548.696C124.268 551.191 124.989 552.075 126.9 555.264C128.847 558.514 131.161 558.648 131.748 558.626C131.843 558.622 131.933 558.602 132.023 558.57C133.264 558.132 142.579 554.294 135.158 540.075C127.22 524.868 117.277 531.665 117.277 531.665C115.61 532.873 115.598 533.1 115.488 535.132L115.487 535.148Z" fill="#925948"/>
<path d="M73.0667 562.895V586.646H36.5334V562.895H73.0667Z" fill="#F5A1C3"/>
<path d="M50.829 519.352V547.061H36.5334V519.352H50.829Z" fill="#F5A1C3"/>
<path d="M59.3379 524.926L59.5653 531.528H56.3562C55.3274 531.528 54.5593 532.492 54.6821 533.51C54.8915 535.244 54.9132 537.571 53.654 538.122C49.3078 540.025 49.9189 529.613 50.3043 525.615C50.386 524.768 51.1433 524.164 51.993 524.243L59.3379 524.926Z" fill="white"/>
<path d="M96.8928 575.166L76.6406 589.221V561.111L96.8928 575.166Z" fill="#283F73"/>
<path d="M79.4608 536.312L83.1198 524.998C83.9739 522.357 87.1972 521.349 89.365 523.046L108.851 538.294C110.159 539.318 110.675 541.059 110.139 542.647L108.371 547.89C107.992 549.014 106.693 549.537 105.654 548.983C104.754 548.503 103.626 548.825 103.103 549.712L96.6773 560.6C95.434 562.706 92.6134 563.229 90.7359 561.701L89.7107 560.867C88.268 559.692 87.8558 557.661 88.7218 555.994L90.7984 551.995C91.706 550.248 91.2058 548.116 89.6216 546.979L80.8943 540.715C79.5105 539.722 78.9324 537.946 79.4608 536.312Z" fill="#A2BDF4"/>
<path d="M122.307 557.353C121.43 557.353 120.719 556.644 120.719 555.77C120.719 554.895 121.43 554.186 122.307 554.186C123.185 554.186 123.896 554.895 123.896 555.77C123.896 556.644 123.185 557.353 122.307 557.353Z" fill="#925948"/>
<path d="M119.925 563.686C119.047 563.686 118.336 562.978 118.336 562.103C118.336 561.229 119.047 560.52 119.925 560.52C120.802 560.52 121.513 561.229 121.513 562.103C121.513 562.978 120.802 563.686 119.925 563.686Z" fill="#925948"/>
<path d="M114.762 556.561C113.227 556.561 111.983 555.143 111.983 553.394C111.983 551.646 113.227 550.228 114.762 550.228C116.298 550.228 117.542 551.646 117.542 553.394C117.542 555.143 116.298 556.561 114.762 556.561Z" fill="#F5A1C3"/>
<path d="M115.16 26.6307L100.332 34.8114L83.6119 44.0364L66.8916 53.2615V0L83.6119 9.22502L100.332 18.45L115.16 26.6307Z" fill="#F5A1C3"/>
<path d="M66.8916 0L66.8916 101.377H26.3672V0H66.8916Z" fill="#F5A1C3"/>
<path d="M43.9191 63.8109C42.1904 63.8109 40.4786 63.4715 38.8815 62.812C37.2844 62.1526 35.8332 61.186 34.6108 59.9674C33.3884 58.7489 32.4188 57.3023 31.7572 55.7102C31.0957 54.1182 30.7552 52.4118 30.7552 50.6885C30.7552 48.9653 31.0957 47.2589 31.7572 45.6668C32.4188 44.0747 33.3884 42.6281 34.6108 41.4096C35.8332 40.1911 37.2844 39.2245 38.8815 38.565C40.4786 37.9055 42.1904 37.5661 43.9191 37.5661V41.4204C42.6982 41.4204 41.4892 41.6601 40.3611 42.1259C39.2331 42.5916 38.2082 43.2743 37.3448 44.1349C36.4815 44.9956 35.7966 46.0173 35.3294 47.1418C34.8621 48.2662 34.6216 49.4714 34.6216 50.6885C34.6216 51.9056 34.8621 53.1108 35.3294 54.2353C35.7966 55.3597 36.4815 56.3815 37.3448 57.2421C38.2082 58.1027 39.2331 58.7854 40.3611 59.2512C41.4892 59.7169 42.6982 59.9567 43.9191 59.9567V63.8109Z" fill="#283F73"/>
<path d="M51.5336 32.6774C47.3283 32.6774 43.9192 29.279 43.9192 25.087C43.9192 20.8949 47.3283 17.4966 51.5336 17.4966C55.739 17.4966 59.1481 20.8949 59.1481 25.087C59.1481 29.279 55.739 32.6774 51.5336 32.6774Z" fill="#283F73"/>
<path d="M51.5336 83.8802C47.3283 83.8802 43.9192 80.4818 43.9192 76.2898C43.9192 72.0977 47.3283 68.6994 51.5336 68.6994C55.739 68.6994 59.1481 72.0977 59.1481 76.2898C59.1481 80.4818 55.739 83.8802 51.5336 83.8802Z" fill="#283F73"/>
<path d="M98.1237 53.2615V101.377L66.8916 101.377L66.8916 53.2615L98.1237 53.2615Z" fill="#F5A1C3"/>
<path d="M66.7131 258.884C70.6607 258.884 73.8609 255.694 73.8609 251.759V162.297C73.8609 158.362 70.6607 155.172 66.7131 155.172C62.7655 155.172 59.5653 158.362 59.5653 162.297V251.759C59.5653 255.694 62.7655 258.884 66.7131 258.884Z" fill="#283F73"/>
<path d="M105.666 828.139V882.863H44.5712V828.139H105.666Z" fill="#283F73"/>
<path d="M39.0116 820.196C42.082 820.196 44.571 822.677 44.571 825.737V936.458C44.571 939.519 42.082 942 39.0116 942H27.9945C24.9241 942 22.4351 939.519 22.4351 936.458V825.737C22.4351 822.677 24.9241 820.196 27.9945 820.196H39.0116Z" fill="#A2BDF4"/>
<path d="M115.16 822.844C118.23 822.844 120.719 825.325 120.719 828.386V882.618C120.719 885.679 118.23 888.16 115.16 888.16H111.226C108.156 888.16 105.666 885.679 105.666 882.618V828.386C105.666 825.325 108.156 822.844 111.226 822.844H115.16Z" fill="#A2BDF4"/>
<path d="M98.5828 898.752C99.5609 898.752 100.354 899.542 100.354 900.517V910.226C100.354 911.201 99.5609 911.991 98.5828 911.991C97.6048 911.991 96.812 911.201 96.812 910.226V900.517C96.812 899.542 97.6048 898.752 98.5828 898.752Z" fill="#283F73"/>
<path d="M88.1566 882.739V923.116C88.1566 929.674 82.8229 934.991 76.2435 934.991H44.4754V882.739H88.1566Z" fill="#F5A1C3"/>
<path d="M97.6974 900.516V910.225H87.9576V900.516H97.6974Z" fill="#283F73"/>
<path d="M22.8778 877.567C10.408 877.567 0.299146 867.49 0.299146 855.059C0.299146 842.629 10.408 832.552 22.8778 832.552C35.3477 832.552 45.4565 842.629 45.4565 855.059C45.4565 867.49 35.3477 877.567 22.8778 877.567Z" fill="#F5A1C3"/>
<path d="M16.2372 930.527C7.43491 930.527 0.299267 923.414 0.299267 914.639C0.299267 905.865 7.43491 898.752 16.2372 898.752C25.0394 898.752 32.1751 905.865 32.1751 914.639C32.1751 923.414 25.0394 930.527 16.2372 930.527Z" fill="#283F73"/>
<path d="M66.2643 923.464C61.1297 923.464 56.9672 919.315 56.9672 914.196C56.9672 909.078 61.1297 904.928 66.2643 904.928C71.399 904.928 75.5614 909.078 75.5614 914.196C75.5614 919.315 71.399 923.464 66.2643 923.464Z" fill="white"/>
<path d="M94.5102 843.946V867.697H70.6841V843.946H94.5102Z" fill="white"/>
<path d="M37.3276 743.401V822.571H29.3855V743.401H37.3276Z" fill="#925948"/>
<path d="M36.5334 598.521V677.691H28.5913V598.521H36.5334Z" fill="#925948"/>
<path d="M62.7421 669.774V756.86L15.0899 747.417V678.918L62.7421 669.774Z" fill="#F5A1C3"/>
<path d="M12.3102 695.899C5.51144 695.899 -1.17663e-06 690.405 -1.17663e-06 683.628C-1.17663e-06 676.851 5.51144 671.357 12.3102 671.357C19.1089 671.357 24.6203 676.851 24.6203 683.628C24.6203 690.405 19.1089 695.899 12.3102 695.899Z" fill="#E9644D"/>
<path d="M12.3102 756.86C5.51144 756.86 -1.17663e-06 751.366 -1.17663e-06 744.589C-1.17663e-06 737.811 5.51144 732.317 12.3102 732.317C19.1089 732.317 24.6203 737.811 24.6203 744.589C24.6203 751.366 19.1089 756.86 12.3102 756.86Z" fill="#E9644D"/>
<path d="M65.9189 661.065C70.3052 661.065 73.8609 664.609 73.8609 668.982V756.86C73.8609 761.232 70.3052 764.777 65.9189 764.777H64.3305C59.9442 764.777 56.3885 761.232 56.3885 756.86V668.982C56.3885 664.609 59.9442 661.065 64.3305 661.065H65.9189Z" fill="#2B885C"/>
<path d="M96.8928 680.066V711.733H73.8609V680.066H96.8928Z" fill="#E9644D"/>
<path d="M36.5334 423.557V502.726H28.5913V423.557H36.5334Z" fill="#925948"/>
<path d="M36.5334 96.5867V175.756H28.5913V96.5867H36.5334Z" fill="#925948"/>
<path d="M88.1566 714.108V745.776H73.8609V714.108H88.1566Z" fill="#F5A1C3"/>
<path d="M36.5334 321.428V242.259H28.5913V321.428H36.5334Z" fill="#925948"/>
<path d="M62.7421 250.175V163.089L15.0899 172.532V241.031L62.7421 250.175Z" fill="#A2BDF4"/>
<path d="M12.3102 224.05C5.51144 224.05 -1.17663e-06 229.544 -1.17663e-06 236.321C-1.17663e-06 243.098 5.51144 248.592 12.3102 248.592C19.1089 248.592 24.6203 243.098 24.6203 236.321C24.6203 229.544 19.1089 224.05 12.3102 224.05Z" fill="#283F73"/>
<path d="M12.3102 163.089C5.51144 163.089 -1.17663e-06 168.583 -1.17663e-06 175.36C-1.17663e-06 182.138 5.51144 187.632 12.3102 187.632C19.1089 187.632 24.6203 182.138 24.6203 175.36C24.6203 168.583 19.1089 163.089 12.3102 163.089Z" fill="#283F73"/>
<path d="M48.4464 331.72V351.946C48.4464 351.946 67.3192 354 67.3192 372.492C67.3192 390.984 48.4464 392.975 48.4464 392.975V410.889H81.803V331.72H48.4464Z" fill="#F5A1C3"/>
<path d="M122.307 372.888L81.803 401.684V344.092L122.307 372.888Z" fill="#2B885C"/>
<path d="M48.4464 321.428V423.557H16.6783V321.428H48.4464Z" fill="#F28448"/>
<path d="M12.3102 419.598C5.51144 419.598 -1.17663e-06 414.104 -1.17663e-06 407.327C-1.17663e-06 400.55 5.51144 395.056 12.3102 395.056C19.1089 395.056 24.6203 400.55 24.6203 407.327C24.6203 414.104 19.1089 419.598 12.3102 419.598Z" fill="#2B885C"/>
<path d="M12.3102 349.929C5.51144 349.929 -1.17663e-06 344.435 -1.17663e-06 337.658C-1.17663e-06 330.88 5.51144 325.386 12.3102 325.386C19.1089 325.386 24.6203 330.88 24.6203 337.658C24.6203 344.435 19.1089 349.929 12.3102 349.929Z" fill="#2B885C"/>
<path d="M36.5334 501.143V603.271H16.6783V501.143H36.5334Z" fill="#283F73"/>
<path d="M36.5334 0V101.337H16.6783V0H36.5334Z" fill="#283F73"/>
<path d="M12.3102 599.313C5.51144 599.313 -1.17663e-06 593.819 -1.17663e-06 587.041C-1.17663e-06 580.264 5.51144 574.77 12.3102 574.77C19.1089 574.77 24.6203 580.264 24.6203 587.041C24.6203 593.819 19.1089 599.313 12.3102 599.313Z" fill="#A2BDF4"/>
<path d="M12.3102 529.644C5.51144 529.644 -1.17663e-06 524.15 -1.17663e-06 517.372C-1.17663e-06 510.595 5.51144 505.101 12.3102 505.101C19.1089 505.101 24.6203 510.595 24.6203 517.372C24.6203 524.15 19.1089 529.644 12.3102 529.644Z" fill="#A2BDF4"/>
<path d="M11.5159 94.2116C5.15587 94.2116 -1.17663e-06 89.0721 -1.17663e-06 82.7321C-1.17663e-06 76.3921 5.15587 71.2525 11.5159 71.2525C17.876 71.2525 23.0319 76.3921 23.0319 82.7321C23.0319 89.0721 17.876 94.2116 11.5159 94.2116Z" fill="#F5A1C3"/>
<path d="M11.5159 29.2927C5.15587 29.2927 -1.17663e-06 24.1531 -1.17663e-06 17.8131C-1.17663e-06 11.4731 5.15587 6.33356 11.5159 6.33356C17.876 6.33356 23.0319 11.4731 23.0319 17.8131C23.0319 24.1531 17.876 29.2927 11.5159 29.2927Z" fill="#F5A1C3"/>
<path d="M80.2146 205.049C70.5648 205.049 62.7421 212.847 62.7421 222.466C62.7421 232.085 70.5648 239.883 80.2146 239.883C89.8643 239.883 97.687 232.085 97.687 222.466C97.687 212.847 89.8643 205.049 80.2146 205.049Z" fill="#2B885C"/>
<path d="M53.6087 193.965C46.3714 193.965 40.5044 199.814 40.5044 207.028C40.5044 214.243 46.3714 220.091 53.6087 220.091C60.8461 220.091 66.7131 214.243 66.7131 207.028C66.7131 199.814 60.8461 193.965 53.6087 193.965Z" fill="#2B885C"/>
<path d="M82.2001 167.048C71.4537 167.048 62.7421 175.909 62.7421 186.84C62.7421 197.771 71.4537 206.632 82.2001 206.632C92.9464 206.632 101.658 197.771 101.658 186.84C101.658 175.909 92.9464 167.048 82.2001 167.048Z" fill="#2B885C"/>
<path d="M109.324 539.846L113.718 542.181L110.711 550.394L106.609 547.846L109.324 539.846Z" fill="white"/>
<path d="M91.2783 557.398L94.168 559.992C94.7316 560.497 94.8718 561.323 94.504 561.969L92.7276 565.093C92.2401 565.95 91.0854 566.136 90.3255 565.481L87.3032 562.873C86.7057 562.358 86.5641 561.49 86.9696 560.83L88.8784 557.72C89.3898 556.887 90.5375 556.733 91.2783 557.398Z" fill="white"/>
<path d="M114.933 560.286C109.323 556.235 108.255 547.2 112.548 540.107C116.84 533.014 124.868 530.548 130.477 534.6C136.087 538.652 137.155 547.687 132.862 554.78C128.57 561.873 120.543 564.338 114.933 560.286Z" fill="white"/>
<path d="M115.487 535.148C115.377 537.195 117.063 540.444 118.254 541.231C119.445 542.018 122.486 538.934 124.147 541.976C125.103 543.726 124.182 545.189 123.228 546.117C122.536 546.789 122.221 547.901 122.716 548.696C124.268 551.191 124.989 552.075 126.9 555.264C128.847 558.514 131.161 558.648 131.748 558.626C131.843 558.622 131.933 558.602 132.023 558.57C133.264 558.132 142.579 554.294 135.158 540.075C127.22 524.868 117.277 531.665 117.277 531.665C115.61 532.873 115.598 533.1 115.488 535.132L115.487 535.148Z" fill="#925948"/>
<path d="M73.0667 562.895V586.646H36.5334V562.895H73.0667Z" fill="#F5A1C3"/>
<path d="M50.829 519.352V547.061H36.5334V519.352H50.829Z" fill="#F5A1C3"/>
<path d="M59.3379 524.926L59.5653 531.528H56.3562C55.3274 531.528 54.5593 532.492 54.6821 533.51C54.8915 535.244 54.9132 537.571 53.654 538.122C49.3078 540.025 49.9189 529.613 50.3043 525.615C50.386 524.768 51.1433 524.164 51.993 524.243L59.3379 524.926Z" fill="white"/>
<path d="M96.8928 575.166L76.6406 589.221V561.111L96.8928 575.166Z" fill="#283F73"/>
<path d="M79.4608 536.312L83.1198 524.998C83.9739 522.357 87.1972 521.349 89.365 523.046L108.851 538.294C110.159 539.318 110.675 541.059 110.139 542.647L108.371 547.89C107.992 549.014 106.693 549.537 105.654 548.983C104.754 548.503 103.626 548.825 103.103 549.712L96.6773 560.6C95.434 562.706 92.6134 563.229 90.7359 561.701L89.7107 560.867C88.268 559.692 87.8558 557.661 88.7218 555.994L90.7984 551.995C91.706 550.248 91.2058 548.116 89.6216 546.979L80.8943 540.715C79.5105 539.722 78.9324 537.946 79.4608 536.312Z" fill="#A2BDF4"/>
<path d="M122.307 557.353C121.43 557.353 120.719 556.644 120.719 555.77C120.719 554.895 121.43 554.186 122.307 554.186C123.185 554.186 123.896 554.895 123.896 555.77C123.896 556.644 123.185 557.353 122.307 557.353Z" fill="#925948"/>
<path d="M119.925 563.686C119.047 563.686 118.336 562.978 118.336 562.103C118.336 561.229 119.047 560.52 119.925 560.52C120.802 560.52 121.513 561.229 121.513 562.103C121.513 562.978 120.802 563.686 119.925 563.686Z" fill="#925948"/>
<path d="M114.762 556.561C113.227 556.561 111.983 555.143 111.983 553.394C111.983 551.646 113.227 550.228 114.762 550.228C116.298 550.228 117.542 551.646 117.542 553.394C117.542 555.143 116.298 556.561 114.762 556.561Z" fill="#F5A1C3"/>
<path d="M115.16 26.6307L100.332 34.8114L83.6119 44.0364L66.8916 53.2615V0L83.6119 9.22502L100.332 18.45L115.16 26.6307Z" fill="#F5A1C3"/>
<path d="M66.8916 0L66.8916 101.377H26.3672V0H66.8916Z" fill="#F5A1C3"/>
<path d="M43.9191 63.8109C42.1904 63.8109 40.4786 63.4715 38.8815 62.812C37.2844 62.1526 35.8332 61.186 34.6108 59.9674C33.3884 58.7489 32.4188 57.3023 31.7572 55.7102C31.0957 54.1182 30.7552 52.4118 30.7552 50.6885C30.7552 48.9653 31.0957 47.2589 31.7572 45.6668C32.4188 44.0747 33.3884 42.6281 34.6108 41.4096C35.8332 40.1911 37.2844 39.2245 38.8815 38.565C40.4786 37.9055 42.1904 37.5661 43.9191 37.5661V41.4204C42.6982 41.4204 41.4892 41.6601 40.3611 42.1259C39.2331 42.5916 38.2082 43.2743 37.3448 44.1349C36.4815 44.9956 35.7966 46.0173 35.3294 47.1418C34.8621 48.2662 34.6216 49.4714 34.6216 50.6885C34.6216 51.9056 34.8621 53.1108 35.3294 54.2353C35.7966 55.3597 36.4815 56.3815 37.3448 57.2421C38.2082 58.1027 39.2331 58.7854 40.3611 59.2512C41.4892 59.7169 42.6982 59.9567 43.9191 59.9567V63.8109Z" fill="#283F73"/>
<path d="M51.5336 32.6774C47.3283 32.6774 43.9192 29.279 43.9192 25.087C43.9192 20.8949 47.3283 17.4966 51.5336 17.4966C55.739 17.4966 59.1481 20.8949 59.1481 25.087C59.1481 29.279 55.739 32.6774 51.5336 32.6774Z" fill="#283F73"/>
<path d="M51.5336 83.8802C47.3283 83.8802 43.9192 80.4818 43.9192 76.2898C43.9192 72.0977 47.3283 68.6994 51.5336 68.6994C55.739 68.6994 59.1481 72.0977 59.1481 76.2898C59.1481 80.4818 55.739 83.8802 51.5336 83.8802Z" fill="#283F73"/>
<path d="M98.1237 53.2615V101.377L66.8916 101.377L66.8916 53.2615L98.1237 53.2615Z" fill="#F5A1C3"/>
<path d="M66.7131 258.884C70.6607 258.884 73.8609 255.694 73.8609 251.759V162.297C73.8609 158.362 70.6607 155.172 66.7131 155.172C62.7655 155.172 59.5653 158.362 59.5653 162.297V251.759C59.5653 255.694 62.7655 258.884 66.7131 258.884Z" fill="#283F73"/>
<path d="M105.666 828.139V882.863H44.5712V828.139H105.666Z" fill="#283F73"/>
<path d="M39.0116 820.196C42.082 820.196 44.571 822.677 44.571 825.737V936.458C44.571 939.519 42.082 942 39.0116 942H27.9945C24.9241 942 22.4351 939.519 22.4351 936.458V825.737C22.4351 822.677 24.9241 820.196 27.9945 820.196H39.0116Z" fill="#A2BDF4"/>
<path d="M115.16 822.844C118.23 822.844 120.719 825.325 120.719 828.386V882.618C120.719 885.679 118.23 888.16 115.16 888.16H111.226C108.156 888.16 105.666 885.679 105.666 882.618V828.386C105.666 825.325 108.156 822.844 111.226 822.844H115.16Z" fill="#A2BDF4"/>
<path d="M98.5828 898.752C99.5609 898.752 100.354 899.542 100.354 900.517V910.226C100.354 911.201 99.5609 911.991 98.5828 911.991C97.6048 911.991 96.812 911.201 96.812 910.226V900.517C96.812 899.542 97.6048 898.752 98.5828 898.752Z" fill="#283F73"/>
<path d="M88.1566 882.739V923.116C88.1566 929.674 82.8229 934.991 76.2435 934.991H44.4754V882.739H88.1566Z" fill="#F5A1C3"/>
<path d="M97.6974 900.516V910.225H87.9576V900.516H97.6974Z" fill="#283F73"/>
<path d="M22.8778 877.567C10.408 877.567 0.299146 867.49 0.299146 855.059C0.299146 842.629 10.408 832.552 22.8778 832.552C35.3477 832.552 45.4565 842.629 45.4565 855.059C45.4565 867.49 35.3477 877.567 22.8778 877.567Z" fill="#F5A1C3"/>
<path d="M16.2372 930.527C7.43491 930.527 0.299267 923.414 0.299267 914.639C0.299267 905.865 7.43491 898.752 16.2372 898.752C25.0394 898.752 32.1751 905.865 32.1751 914.639C32.1751 923.414 25.0394 930.527 16.2372 930.527Z" fill="#283F73"/>
<path d="M66.2643 923.464C61.1297 923.464 56.9672 919.315 56.9672 914.196C56.9672 909.078 61.1297 904.928 66.2643 904.928C71.399 904.928 75.5614 909.078 75.5614 914.196C75.5614 919.315 71.399 923.464 66.2643 923.464Z" fill="white"/>
<path d="M94.5102 843.946V867.697H70.6841V843.946H94.5102Z" fill="white"/>
<path d="M37.3276 743.401V822.571H29.3855V743.401H37.3276Z" fill="#925948"/>
<path d="M36.5334 598.521V677.691H28.5913V598.521H36.5334Z" fill="#925948"/>
<path d="M62.7421 669.774V756.86L15.0899 747.417V678.918L62.7421 669.774Z" fill="#F5A1C3"/>
<path d="M12.3102 695.899C5.51144 695.899 -1.17663e-06 690.405 -1.17663e-06 683.628C-1.17663e-06 676.851 5.51144 671.357 12.3102 671.357C19.1089 671.357 24.6203 676.851 24.6203 683.628C24.6203 690.405 19.1089 695.899 12.3102 695.899Z" fill="#E9644D"/>
<path d="M12.3102 756.86C5.51144 756.86 -1.17663e-06 751.366 -1.17663e-06 744.589C-1.17663e-06 737.811 5.51144 732.317 12.3102 732.317C19.1089 732.317 24.6203 737.811 24.6203 744.589C24.6203 751.366 19.1089 756.86 12.3102 756.86Z" fill="#E9644D"/>
<path d="M65.9189 661.065C70.3052 661.065 73.8609 664.609 73.8609 668.982V756.86C73.8609 761.232 70.3052 764.777 65.9189 764.777H64.3305C59.9442 764.777 56.3885 761.232 56.3885 756.86V668.982C56.3885 664.609 59.9442 661.065 64.3305 661.065H65.9189Z" fill="#2B885C"/>
<path d="M96.8928 680.066V711.733H73.8609V680.066H96.8928Z" fill="#E9644D"/>
<path d="M36.5334 423.557V502.726H28.5913V423.557H36.5334Z" fill="#925948"/>
<path d="M36.5334 96.5867V175.756H28.5913V96.5867H36.5334Z" fill="#925948"/>
<path d="M88.1566 714.108V745.776H73.8609V714.108H88.1566Z" fill="#F5A1C3"/>
<path d="M36.5334 321.428V242.259H28.5913V321.428H36.5334Z" fill="#925948"/>
<path d="M62.7421 250.175V163.089L15.0899 172.532V241.031L62.7421 250.175Z" fill="#A2BDF4"/>
<path d="M12.3102 224.05C5.51144 224.05 -1.17663e-06 229.544 -1.17663e-06 236.321C-1.17663e-06 243.098 5.51144 248.592 12.3102 248.592C19.1089 248.592 24.6203 243.098 24.6203 236.321C24.6203 229.544 19.1089 224.05 12.3102 224.05Z" fill="#283F73"/>
<path d="M12.3102 163.089C5.51144 163.089 -1.17663e-06 168.583 -1.17663e-06 175.36C-1.17663e-06 182.138 5.51144 187.632 12.3102 187.632C19.1089 187.632 24.6203 182.138 24.6203 175.36C24.6203 168.583 19.1089 163.089 12.3102 163.089Z" fill="#283F73"/>
<path d="M48.4464 331.72V351.946C48.4464 351.946 67.3192 354 67.3192 372.492C67.3192 390.984 48.4464 392.975 48.4464 392.975V410.889H81.803V331.72H48.4464Z" fill="#F5A1C3"/>
<path d="M122.307 372.888L81.803 401.684V344.092L122.307 372.888Z" fill="#2B885C"/>
<path d="M48.4464 321.428V423.557H16.6783V321.428H48.4464Z" fill="#F28448"/>
<path d="M12.3102 419.598C5.51144 419.598 -1.17663e-06 414.104 -1.17663e-06 407.327C-1.17663e-06 400.55 5.51144 395.056 12.3102 395.056C19.1089 395.056 24.6203 400.55 24.6203 407.327C24.6203 414.104 19.1089 419.598 12.3102 419.598Z" fill="#2B885C"/>
<path d="M12.3102 349.929C5.51144 349.929 -1.17663e-06 344.435 -1.17663e-06 337.658C-1.17663e-06 330.88 5.51144 325.386 12.3102 325.386C19.1089 325.386 24.6203 330.88 24.6203 337.658C24.6203 344.435 19.1089 349.929 12.3102 349.929Z" fill="#2B885C"/>
<path d="M36.5334 501.143V603.271H16.6783V501.143H36.5334Z" fill="#283F73"/>
<path d="M36.5334 0V101.337H16.6783V0H36.5334Z" fill="#283F73"/>
<path d="M12.3102 599.313C5.51144 599.313 -1.17663e-06 593.819 -1.17663e-06 587.041C-1.17663e-06 580.264 5.51144 574.77 12.3102 574.77C19.1089 574.77 24.6203 580.264 24.6203 587.041C24.6203 593.819 19.1089 599.313 12.3102 599.313Z" fill="#A2BDF4"/>
<path d="M12.3102 529.644C5.51144 529.644 -1.17663e-06 524.15 -1.17663e-06 517.372C-1.17663e-06 510.595 5.51144 505.101 12.3102 505.101C19.1089 505.101 24.6203 510.595 24.6203 517.372C24.6203 524.15 19.1089 529.644 12.3102 529.644Z" fill="#A2BDF4"/>
<path d="M11.5159 94.2116C5.15587 94.2116 -1.17663e-06 89.0721 -1.17663e-06 82.7321C-1.17663e-06 76.3921 5.15587 71.2525 11.5159 71.2525C17.876 71.2525 23.0319 76.3921 23.0319 82.7321C23.0319 89.0721 17.876 94.2116 11.5159 94.2116Z" fill="#F5A1C3"/>
<path d="M11.5159 29.2927C5.15587 29.2927 -1.17663e-06 24.1531 -1.17663e-06 17.8131C-1.17663e-06 11.4731 5.15587 6.33356 11.5159 6.33356C17.876 6.33356 23.0319 11.4731 23.0319 17.8131C23.0319 24.1531 17.876 29.2927 11.5159 29.2927Z" fill="#F5A1C3"/>
<path d="M80.2146 205.049C70.5648 205.049 62.7421 212.847 62.7421 222.466C62.7421 232.085 70.5648 239.883 80.2146 239.883C89.8643 239.883 97.687 232.085 97.687 222.466C97.687 212.847 89.8643 205.049 80.2146 205.049Z" fill="#2B885C"/>
<path d="M53.6087 193.965C46.3714 193.965 40.5044 199.814 40.5044 207.028C40.5044 214.243 46.3714 220.091 53.6087 220.091C60.8461 220.091 66.7131 214.243 66.7131 207.028C66.7131 199.814 60.8461 193.965 53.6087 193.965Z" fill="#2B885C"/>
<path d="M82.2001 167.048C71.4537 167.048 62.7421 175.909 62.7421 186.84C62.7421 197.771 71.4537 206.632 82.2001 206.632C92.9464 206.632 101.658 197.771 101.658 186.84C101.658 175.909 92.9464 167.048 82.2001 167.048Z" fill="#2B885C"/>
<path d="M109.324 539.846L113.718 542.181L110.711 550.394L106.609 547.846L109.324 539.846Z" fill="white"/>
<path d="M114.933 560.286C109.323 556.235 108.255 547.2 112.548 540.107C116.84 533.014 124.868 530.548 130.477 534.6C136.087 538.652 137.155 547.687 132.862 554.78C128.57 561.873 120.543 564.338 114.933 560.286Z" fill="white"/>
<path d="M115.487 535.148C115.377 537.195 117.063 540.444 118.254 541.231C119.445 542.018 122.486 538.934 124.147 541.976C125.103 543.726 124.182 545.189 123.228 546.117C122.536 546.789 122.221 547.901 122.716 548.696C124.268 551.191 124.989 552.075 126.9 555.264C128.847 558.514 131.161 558.648 131.748 558.626C131.843 558.622 131.933 558.602 132.023 558.57C133.264 558.132 142.579 554.294 135.158 540.075C127.22 524.868 117.277 531.665 117.277 531.665C115.61 532.873 115.598 533.1 115.488 535.132L115.487 535.148Z" fill="#925948"/>
<path d="M73.0667 562.895V586.646H36.5334V562.895H73.0667Z" fill="#F5A1C3"/>
<path d="M50.829 519.352V547.061H36.5334V519.352H50.829Z" fill="#F5A1C3"/>
<path d="M59.3379 524.926L59.5653 531.528H56.3562C55.3274 531.528 54.5593 532.492 54.6821 533.51C54.8915 535.244 54.9132 537.571 53.654 538.122C49.3078 540.025 49.9189 529.613 50.3043 525.615C50.386 524.768 51.1433 524.164 51.993 524.243L59.3379 524.926Z" fill="white"/>
<path d="M96.8928 575.166L76.6406 589.221V561.111L96.8928 575.166Z" fill="#283F73"/>
<path d="M84.9084 564.778C84.9084 564.778 86.4667 563.093 87.0332 562.726L87.2635 561.392L91.982 564.85L91.0232 565.441C90.9367 565.494 90.8555 565.557 90.781 565.629C90.4407 565.957 90.2662 566.442 90.2798 566.937C90.3039 567.818 90.2675 569.122 89.8385 569.109C89.0611 569.085 88.9589 567.119 88.9589 567.119C88.9589 567.119 87.9767 569.002 87.343 569.149C86.545 569.333 87.8394 566.267 87.8394 566.267C87.8394 566.267 86.1539 569.298 85.5322 569.053C84.8951 568.803 86.8798 565.536 86.8798 565.536C86.8798 565.536 85.2165 567.51 84.6929 567.498C83.9029 567.479 86.3031 564.577 86.3031 564.577C86.3031 564.577 84.3827 565.969 84.4515 565.57C84.5069 565.248 84.9084 564.778 84.9084 564.778Z" fill="white"/>
<path d="M82.6037 539.381L87.3296 522.632C79.4128 520.988 79.3715 521.125 74.3981 524.709C74.3981 524.709 58.2969 523.718 57.7675 524.709C57.238 525.7 56.5226 529.536 57.7675 531.406C59.0123 533.276 82.6037 539.381 82.6037 539.381Z" fill="#283F73"/>
<path d="M79.1066 537.407L83.8259 522.815C84.3383 521.23 86.2723 520.626 87.573 521.644L109.723 538.976C110.508 539.591 110.818 540.635 110.496 541.588L108.371 547.89C107.992 549.014 106.693 549.537 105.654 548.983C104.754 548.503 103.626 548.825 103.103 549.712L95.7305 562.204C94.9845 563.468 93.2921 563.782 92.1656 562.865L88.7211 560.061C87.8555 559.356 87.6081 558.138 88.1278 557.137L91.4298 550.78C91.9744 549.731 91.6743 548.452 90.7237 547.77L79.9667 540.049C79.1364 539.453 78.7896 538.388 79.1066 537.407Z" fill="#A2BDF4"/>
<path d="M122.307 557.353C121.43 557.353 120.719 556.644 120.719 555.77C120.719 554.895 121.43 554.186 122.307 554.186C123.185 554.186 123.896 554.895 123.896 555.77C123.896 556.644 123.185 557.353 122.307 557.353Z" fill="#925948"/>
<path d="M119.925 563.686C119.047 563.686 118.336 562.978 118.336 562.103C118.336 561.229 119.047 560.52 119.925 560.52C120.802 560.52 121.513 561.229 121.513 562.103C121.513 562.978 120.802 563.686 119.925 563.686Z" fill="#925948"/>
<path d="M114.762 555.77C113.227 555.77 111.983 554.529 111.983 552.999C111.983 551.468 113.227 550.228 114.762 550.228C116.298 550.228 117.542 551.468 117.542 552.999C117.542 554.529 116.298 555.77 114.762 555.77Z" fill="#F5A1C3"/>
<path d="M115.16 26.6307L100.332 34.8114L83.6119 44.0364L66.8916 53.2615V0L83.6119 9.22502L100.332 18.45L115.16 26.6307Z" fill="#F5A1C3"/>
<path d="M66.8916 0L66.8916 101.377H26.3672V0H66.8916Z" fill="#F5A1C3"/>
<path d="M43.9191 63.8109C42.1904 63.8109 40.4786 63.4715 38.8815 62.812C37.2844 62.1526 35.8332 61.186 34.6108 59.9674C33.3884 58.7489 32.4188 57.3023 31.7572 55.7102C31.0957 54.1182 30.7552 52.4118 30.7552 50.6885C30.7552 48.9653 31.0957 47.2589 31.7572 45.6668C32.4188 44.0747 33.3884 42.6281 34.6108 41.4096C35.8332 40.1911 37.2844 39.2245 38.8815 38.565C40.4786 37.9055 42.1904 37.5661 43.9191 37.5661V41.4204C42.6982 41.4204 41.4892 41.6601 40.3611 42.1259C39.2331 42.5916 38.2082 43.2743 37.3448 44.1349C36.4815 44.9956 35.7966 46.0173 35.3294 47.1418C34.8621 48.2662 34.6216 49.4714 34.6216 50.6885C34.6216 51.9056 34.8621 53.1108 35.3294 54.2353C35.7966 55.3597 36.4815 56.3815 37.3448 57.2421C38.2082 58.1027 39.2331 58.7854 40.3611 59.2512C41.4892 59.7169 42.6982 59.9567 43.9191 59.9567V63.8109Z" fill="#283F73"/>
<path d="M51.5336 32.6774C47.3283 32.6774 43.9192 29.279 43.9192 25.087C43.9192 20.8949 47.3283 17.4966 51.5336 17.4966C55.739 17.4966 59.1481 20.8949 59.1481 25.087C59.1481 29.279 55.739 32.6774 51.5336 32.6774Z" fill="#283F73"/>
<path d="M51.5336 83.8802C47.3283 83.8802 43.9192 80.4818 43.9192 76.2898C43.9192 72.0977 47.3283 68.6994 51.5336 68.6994C55.739 68.6994 59.1481 72.0977 59.1481 76.2898C59.1481 80.4818 55.739 83.8802 51.5336 83.8802Z" fill="#283F73"/>
<path d="M98.1237 53.2615V101.377L66.8916 101.377L66.8916 53.2615L98.1237 53.2615Z" fill="#F5A1C3"/>
<path d="M66.7131 258.884C70.6607 258.884 73.8609 255.694 73.8609 251.759V162.297C73.8609 158.362 70.6607 155.172 66.7131 155.172C62.7655 155.172 59.5653 158.362 59.5653 162.297V251.759C59.5653 255.694 62.7655 258.884 66.7131 258.884Z" fill="#283F73"/>
</svg>
