<svg width="178" height="1290" viewBox="0 0 178 1290" fill="none" xmlns="http://www.w3.org/2000/svg">
<rect width="69.1223" height="76.9265" transform="matrix(0 1 1 0 44.9531 1146.18)" fill="#283F73"/>
<rect width="153.853" height="27.8719" rx="7" transform="matrix(0 1 1 0 121.88 1136.15)" fill="#A2BDF4"/>
<rect width="82.5009" height="18.9529" rx="7" transform="matrix(0 1 1 0 26 1139.49)" fill="#A2BDF4"/>
<rect width="16.7231" height="4.45951" rx="2.22975" transform="matrix(0 1 1 0 51.6426 1235.37)" fill="#283F73"/>
<path d="M67 1215.15V1266.15C67 1274.43 73.7157 1281.15 82 1281.15H122V1215.15H67Z" fill="#F5A1C3"/>
<rect width="12.2636" height="12.2636" transform="matrix(0 1 1 0 54.9873 1237.6)" fill="#283F73"/>
<circle cx="28.4293" cy="28.4293" r="28.4293" transform="matrix(0 1 1 0 120.765 1151.75)" fill="#F5A1C3"/>
<circle cx="20.0678" cy="20.0678" r="20.0678" transform="matrix(0 1 1 0 137.487 1235.37)" fill="#283F73"/>
<circle cx="11.7062" cy="11.7062" r="11.7062" transform="matrix(0 1 1 0 82.8584 1243.17)" fill="white"/>
<rect width="30" height="30" transform="matrix(0 1 1 0 59 1166.15)" fill="white"/>
<rect width="100" height="10" transform="matrix(0 1 1 0 131.001 1039.15)" fill="#925948"/>
<rect width="100" height="10" transform="matrix(0 1 1 0 132.001 856.147)" fill="#925948"/>
<path d="M99 946.147V1056.15L159 1044.22V957.697L99 946.147Z" fill="#F5A1C3"/>
<circle cx="15.5" cy="15.5" r="15.5" transform="matrix(0 1 1 0 147.001 948.147)" fill="#E9644D"/>
<circle cx="15.5" cy="15.5" r="15.5" transform="matrix(0 1 1 0 147.001 1025.15)" fill="#E9644D"/>
<rect width="131" height="22" rx="10" transform="matrix(0 1 1 0 85 935.147)" fill="#2B885C"/>
<rect width="40" height="29" transform="matrix(0 1 1 0 56 959.147)" fill="#E9644D"/>
<rect width="100" height="10" transform="matrix(0 1 1 0 132.001 635.147)" fill="#925948"/>
<rect width="100" height="10" transform="matrix(0 1 1 0 132.001 222.147)" fill="#925948"/>
<rect width="40" height="18" transform="matrix(0 1 1 0 67 1002.15)" fill="#F5A1C3"/>
<rect x="132.001" y="506.147" width="100" height="10" transform="rotate(-90 132.001 506.147)" fill="#925948"/>
<path d="M99 416.147V306.147L159 318.075V404.597L99 416.147Z" fill="#A2BDF4"/>
<circle cx="162.501" cy="398.647" r="15.5" transform="rotate(-90 162.501 398.647)" fill="#283F73"/>
<circle cx="162.501" cy="321.647" r="15.5" transform="rotate(-90 162.501 321.647)" fill="#283F73"/>
<path d="M117 519.147V544.694C117 544.694 93.2368 547.289 93.2368 570.647C93.2368 594.005 117 596.519 117 596.519V619.147H75V519.147H117Z" fill="#F5A1C3"/>
<path d="M24 571.147L75 607.52V534.774L24 571.147Z" fill="#2B885C"/>
<rect width="129" height="40" transform="matrix(0 1 1 0 117 506.147)" fill="#F28448"/>
<circle cx="15.5" cy="15.5" r="15.5" transform="matrix(0 1 1 0 147.001 599.147)" fill="#2B885C"/>
<circle cx="15.5" cy="15.5" r="15.5" transform="matrix(0 1 1 0 147.001 511.147)" fill="#2B885C"/>
<rect width="129" height="25" transform="matrix(0 1 1 0 132.001 733.147)" fill="#283F73"/>
<rect width="128" height="25" transform="matrix(0 1 1 0 132.001 100.147)" fill="#283F73"/>
<circle cx="15.5" cy="15.5" r="15.5" transform="matrix(0 1 1 0 147.001 826.147)" fill="#A2BDF4"/>
<circle cx="15.5" cy="15.5" r="15.5" transform="matrix(0 1 1 0 147.001 738.147)" fill="#A2BDF4"/>
<circle cx="14.5" cy="14.5" r="14.5" transform="matrix(0 1 1 0 149.001 190.147)" fill="#F5A1C3"/>
<circle cx="14.5" cy="14.5" r="14.5" transform="matrix(0 1 1 0 149.001 108.147)" fill="#F5A1C3"/>
<circle cx="77" cy="381.147" r="22" transform="rotate(-90 77 381.147)" fill="#2B885C"/>
<circle cx="110.5" cy="361.647" r="16.5" transform="rotate(-90 110.5 361.647)" fill="#2B885C"/>
<ellipse cx="74.5" cy="336.147" rx="25" ry="24.5" transform="rotate(-90 74.5 336.147)" fill="#2B885C"/>
<path d="M40.3473 782.034L34.8145 784.983L38.6018 795.357L43.7667 792.138L40.3473 782.034Z" fill="white"/>
<path d="M63.0694 804.204L59.4308 807.48C58.7212 808.119 58.5447 809.161 59.0078 809.978L61.2445 813.923C61.8583 815.006 63.3123 815.242 64.2691 814.413L68.0745 811.12C68.8268 810.469 69.0052 809.373 68.4946 808.539L66.0912 804.611C65.4473 803.559 64.0021 803.364 63.0694 804.204Z" fill="white" stroke="white"/>
<ellipse cx="18.9455" cy="15.7936" rx="18.9455" ry="15.7936" transform="matrix(0.516537 0.856265 0.809774 -0.586741 0.923828 784.674)" fill="white"/>
<path d="M32.5872 776.1C32.7262 778.685 30.6029 782.79 29.1035 783.783C27.604 784.777 23.7754 780.882 21.6835 784.724C20.4801 786.935 21.6391 788.783 22.8409 789.955C23.7117 790.804 24.1089 792.208 23.4858 793.212C21.5313 796.363 20.624 797.48 18.2178 801.509C15.3846 806.251 11.9351 805.741 11.9351 805.741C11.9351 805.741 -2.1742 801.531 7.82006 782.322C17.8143 763.114 30.3339 771.7 30.3339 771.7C32.4326 773.226 32.448 773.513 32.5861 776.08L32.5872 776.1Z" fill="#925948"/>
<rect width="30" height="46" transform="matrix(0 1 1 0 86 811.147)" fill="#F5A1C3"/>
<rect width="35" height="18" transform="matrix(0 1 1 0 114 756.147)" fill="#F5A1C3"/>
<path d="M103.286 763.189L103 771.527H107.041C108.336 771.527 109.303 772.744 109.148 774.031C108.885 776.221 108.857 779.16 110.443 779.857C115.915 782.26 115.146 769.108 114.661 764.058C114.558 762.989 113.604 762.226 112.534 762.326L103.286 763.189Z" fill="white" stroke="white"/>
<path d="M56 826.647L81.5 844.4V808.893L56 826.647Z" fill="#283F73"/>
<path d="M77.949 777.57L73.3419 763.279C72.2665 759.943 68.208 758.671 65.4785 760.813L40.9434 780.073C39.2957 781.366 38.6468 783.565 39.3211 785.571L41.5474 792.195C42.0247 793.614 43.6605 794.274 44.9688 793.575C46.1021 792.969 47.5217 793.376 48.1806 794.496L56.2714 808.248C57.8369 810.909 61.3883 811.569 63.7524 809.639L65.0431 808.585C66.8598 807.102 67.3788 804.536 66.2883 802.43L63.6736 797.38C62.5308 795.172 63.1606 792.479 65.1553 791.043L76.1441 783.131C77.8864 781.877 78.6144 779.634 77.949 777.57Z" fill="#A2BDF4"/>
<circle cx="2" cy="2" r="2" transform="matrix(0 1 1 0 22 800.147)" fill="#925948"/>
<circle cx="2" cy="2" r="2" transform="matrix(0 1 1 0 25 808.147)" fill="#925948"/>
<path d="M30.5 799.147C30.5 801.145 31.9038 802.647 33.5 802.647C35.0962 802.647 36.5 801.145 36.5 799.147C36.5 797.149 35.0962 795.647 33.5 795.647C31.9038 795.647 30.5 797.149 30.5 799.147Z" fill="#F5A1C3" stroke="#F5A1C3"/>
<path d="M33 133.785L51.6695 144.118L72.7224 155.77L93.7752 167.422V100.147L72.7224 111.799L51.6695 123.451L33 133.785Z" fill="#F5A1C3"/>
<rect width="128.05" height="51.0252" transform="matrix(0 1 1 0 93.7754 100.147)" fill="#F5A1C3"/>
<path d="M122.7 180.747C124.877 180.747 127.032 180.319 129.043 179.486C131.054 178.653 132.881 177.432 134.42 175.893C135.96 174.353 137.18 172.526 138.013 170.515C138.846 168.504 139.275 166.349 139.275 164.172C139.275 161.996 138.846 159.84 138.013 157.829C137.18 155.818 135.96 153.991 134.42 152.452C132.881 150.913 131.054 149.692 129.043 148.859C127.032 148.026 124.877 147.597 122.7 147.597L122.7 152.466C124.237 152.466 125.76 152.768 127.18 153.357C128.6 153.945 129.891 154.807 130.978 155.894C132.065 156.981 132.927 158.272 133.516 159.692C134.104 161.113 134.407 162.635 134.407 164.172C134.407 165.71 134.104 167.232 133.516 168.652C132.927 170.073 132.065 171.363 130.978 172.45C129.891 173.537 128.6 174.4 127.18 174.988C125.76 175.576 124.237 175.879 122.7 175.879V180.747Z" fill="#283F73"/>
<circle cx="9.58754" cy="9.58754" r="9.58754" transform="matrix(0 1 1 0 103.525 122.247)" fill="#283F73"/>
<circle cx="9.58754" cy="9.58754" r="9.58754" transform="matrix(0 1 1 0 103.525 186.922)" fill="#283F73"/>
<rect width="60.7752" height="39.3251" transform="matrix(0 1 1 0 54.4502 167.422)" fill="#F5A1C3"/>
<rect x="85" y="427.147" width="131" height="18" rx="9" transform="rotate(-90 85 427.147)" fill="#283F73"/>
<rect width="69.1223" height="76.9265" transform="matrix(0 1 1 0 44.9531 1146.18)" fill="#283F73"/>
<rect width="153.853" height="27.8719" rx="7" transform="matrix(0 1 1 0 121.88 1136.15)" fill="#A2BDF4"/>
<rect width="82.5009" height="18.9529" rx="7" transform="matrix(0 1 1 0 26 1139.49)" fill="#A2BDF4"/>
<rect width="16.7231" height="4.45951" rx="2.22975" transform="matrix(0 1 1 0 51.6426 1235.37)" fill="#283F73"/>
<path d="M67 1215.15V1266.15C67 1274.43 73.7157 1281.15 82 1281.15H122V1215.15H67Z" fill="#F5A1C3"/>
<rect width="12.2636" height="12.2636" transform="matrix(0 1 1 0 54.9873 1237.6)" fill="#283F73"/>
<circle cx="28.4293" cy="28.4293" r="28.4293" transform="matrix(0 1 1 0 120.765 1151.75)" fill="#F5A1C3"/>
<circle cx="20.0678" cy="20.0678" r="20.0678" transform="matrix(0 1 1 0 137.487 1235.37)" fill="#283F73"/>
<circle cx="11.7062" cy="11.7062" r="11.7062" transform="matrix(0 1 1 0 82.8584 1243.17)" fill="white"/>
<rect width="30" height="30" transform="matrix(0 1 1 0 59 1166.15)" fill="white"/>
<rect width="100" height="10" transform="matrix(0 1 1 0 131.001 1039.15)" fill="#925948"/>
<rect width="100" height="10" transform="matrix(0 1 1 0 132.001 856.147)" fill="#925948"/>
<path d="M99 946.147V1056.15L159 1044.22V957.697L99 946.147Z" fill="#F5A1C3"/>
<circle cx="15.5" cy="15.5" r="15.5" transform="matrix(0 1 1 0 147.001 948.147)" fill="#E9644D"/>
<circle cx="15.5" cy="15.5" r="15.5" transform="matrix(0 1 1 0 147.001 1025.15)" fill="#E9644D"/>
<rect width="131" height="22" rx="10" transform="matrix(0 1 1 0 85 935.147)" fill="#2B885C"/>
<rect width="40" height="29" transform="matrix(0 1 1 0 56 959.147)" fill="#E9644D"/>
<rect width="100" height="10" transform="matrix(0 1 1 0 132.001 635.147)" fill="#925948"/>
<rect width="100" height="10" transform="matrix(0 1 1 0 132.001 222.147)" fill="#925948"/>
<rect width="40" height="18" transform="matrix(0 1 1 0 67 1002.15)" fill="#F5A1C3"/>
<rect x="132.001" y="506.147" width="100" height="10" transform="rotate(-90 132.001 506.147)" fill="#925948"/>
<path d="M99 416.147V306.147L159 318.075V404.597L99 416.147Z" fill="#A2BDF4"/>
<circle cx="162.501" cy="398.647" r="15.5" transform="rotate(-90 162.501 398.647)" fill="#283F73"/>
<circle cx="162.501" cy="321.647" r="15.5" transform="rotate(-90 162.501 321.647)" fill="#283F73"/>
<path d="M117 519.147V544.694C117 544.694 93.2368 547.289 93.2368 570.647C93.2368 594.005 117 596.519 117 596.519V619.147H75V519.147H117Z" fill="#F5A1C3"/>
<path d="M24 571.147L75 607.52V534.774L24 571.147Z" fill="#2B885C"/>
<rect width="129" height="40" transform="matrix(0 1 1 0 117 506.147)" fill="#F28448"/>
<circle cx="15.5" cy="15.5" r="15.5" transform="matrix(0 1 1 0 147.001 599.147)" fill="#2B885C"/>
<circle cx="15.5" cy="15.5" r="15.5" transform="matrix(0 1 1 0 147.001 511.147)" fill="#2B885C"/>
<rect width="129" height="25" transform="matrix(0 1 1 0 132.001 733.147)" fill="#283F73"/>
<rect width="128" height="25" transform="matrix(0 1 1 0 132.001 100.147)" fill="#283F73"/>
<circle cx="15.5" cy="15.5" r="15.5" transform="matrix(0 1 1 0 147.001 826.147)" fill="#A2BDF4"/>
<circle cx="15.5" cy="15.5" r="15.5" transform="matrix(0 1 1 0 147.001 738.147)" fill="#A2BDF4"/>
<circle cx="14.5" cy="14.5" r="14.5" transform="matrix(0 1 1 0 149.001 190.147)" fill="#F5A1C3"/>
<circle cx="14.5" cy="14.5" r="14.5" transform="matrix(0 1 1 0 149.001 108.147)" fill="#F5A1C3"/>
<circle cx="77" cy="381.147" r="22" transform="rotate(-90 77 381.147)" fill="#2B885C"/>
<circle cx="110.5" cy="361.647" r="16.5" transform="rotate(-90 110.5 361.647)" fill="#2B885C"/>
<ellipse cx="74.5" cy="336.147" rx="25" ry="24.5" transform="rotate(-90 74.5 336.147)" fill="#2B885C"/>
<path d="M40.3473 782.034L34.8145 784.983L38.6018 795.357L43.7667 792.138L40.3473 782.034Z" fill="white"/>
<path d="M63.0694 804.204L59.4308 807.48C58.7212 808.119 58.5447 809.161 59.0078 809.978L61.2445 813.923C61.8583 815.006 63.3123 815.242 64.2691 814.413L68.0745 811.12C68.8268 810.469 69.0052 809.373 68.4946 808.539L66.0912 804.611C65.4473 803.559 64.0021 803.364 63.0694 804.204Z" fill="white" stroke="white"/>
<ellipse cx="18.9455" cy="15.7936" rx="18.9455" ry="15.7936" transform="matrix(0.516537 0.856265 0.809774 -0.586741 0.923828 784.674)" fill="white"/>
<path d="M32.5872 776.1C32.7262 778.685 30.6029 782.79 29.1035 783.783C27.604 784.777 23.7754 780.882 21.6835 784.724C20.4801 786.935 21.6391 788.783 22.8409 789.955C23.7117 790.804 24.1089 792.208 23.4858 793.212C21.5313 796.363 20.624 797.48 18.2178 801.509C15.3846 806.251 11.9351 805.741 11.9351 805.741C11.9351 805.741 -2.1742 801.531 7.82006 782.322C17.8143 763.114 30.3339 771.7 30.3339 771.7C32.4326 773.226 32.448 773.513 32.5861 776.08L32.5872 776.1Z" fill="#925948"/>
<rect width="30" height="46" transform="matrix(0 1 1 0 86 811.147)" fill="#F5A1C3"/>
<rect width="35" height="18" transform="matrix(0 1 1 0 114 756.147)" fill="#F5A1C3"/>
<path d="M103.286 763.189L103 771.527H107.041C108.336 771.527 109.303 772.744 109.148 774.031C108.885 776.221 108.857 779.16 110.443 779.857C115.915 782.26 115.146 769.108 114.661 764.058C114.558 762.989 113.604 762.226 112.534 762.326L103.286 763.189Z" fill="white" stroke="white"/>
<path d="M56 826.647L81.5 844.4V808.893L56 826.647Z" fill="#283F73"/>
<path d="M77.949 777.57L73.3419 763.279C72.2665 759.943 68.208 758.671 65.4785 760.813L40.9434 780.073C39.2957 781.366 38.6468 783.565 39.3211 785.571L41.5474 792.195C42.0247 793.614 43.6605 794.274 44.9688 793.575C46.1021 792.969 47.5217 793.376 48.1806 794.496L56.2714 808.248C57.8369 810.909 61.3883 811.569 63.7524 809.639L65.0431 808.585C66.8598 807.102 67.3788 804.536 66.2883 802.43L63.6736 797.38C62.5308 795.172 63.1606 792.479 65.1553 791.043L76.1441 783.131C77.8864 781.877 78.6144 779.634 77.949 777.57Z" fill="#A2BDF4"/>
<circle cx="2" cy="2" r="2" transform="matrix(0 1 1 0 22 800.147)" fill="#925948"/>
<circle cx="2" cy="2" r="2" transform="matrix(0 1 1 0 25 808.147)" fill="#925948"/>
<path d="M30.5 799.147C30.5 801.145 31.9038 802.647 33.5 802.647C35.0962 802.647 36.5 801.145 36.5 799.147C36.5 797.149 35.0962 795.647 33.5 795.647C31.9038 795.647 30.5 797.149 30.5 799.147Z" fill="#F5A1C3" stroke="#F5A1C3"/>
<path d="M33 133.785L51.6695 144.118L72.7224 155.77L93.7752 167.422V100.147L72.7224 111.799L51.6695 123.451L33 133.785Z" fill="#F5A1C3"/>
<rect width="128.05" height="51.0252" transform="matrix(0 1 1 0 93.7754 100.147)" fill="#F5A1C3"/>
<path d="M122.7 180.747C124.877 180.747 127.032 180.319 129.043 179.486C131.054 178.653 132.881 177.432 134.42 175.893C135.96 174.353 137.18 172.526 138.013 170.515C138.846 168.504 139.275 166.349 139.275 164.172C139.275 161.996 138.846 159.84 138.013 157.829C137.18 155.818 135.96 153.991 134.42 152.452C132.881 150.913 131.054 149.692 129.043 148.859C127.032 148.026 124.877 147.597 122.7 147.597L122.7 152.466C124.237 152.466 125.76 152.768 127.18 153.357C128.6 153.945 129.891 154.807 130.978 155.894C132.065 156.981 132.927 158.272 133.516 159.692C134.104 161.113 134.407 162.635 134.407 164.172C134.407 165.71 134.104 167.232 133.516 168.652C132.927 170.073 132.065 171.363 130.978 172.45C129.891 173.537 128.6 174.4 127.18 174.988C125.76 175.576 124.237 175.879 122.7 175.879V180.747Z" fill="#283F73"/>
<circle cx="9.58754" cy="9.58754" r="9.58754" transform="matrix(0 1 1 0 103.525 122.247)" fill="#283F73"/>
<circle cx="9.58754" cy="9.58754" r="9.58754" transform="matrix(0 1 1 0 103.525 186.922)" fill="#283F73"/>
<rect width="60.7752" height="39.3251" transform="matrix(0 1 1 0 54.4502 167.422)" fill="#F5A1C3"/>
<rect x="85" y="427.147" width="131" height="18" rx="9" transform="rotate(-90 85 427.147)" fill="#283F73"/>
<rect width="69.1223" height="76.9265" transform="matrix(0 1 1 0 44.9531 1146.18)" fill="#283F73"/>
<rect width="153.853" height="27.8719" rx="7" transform="matrix(0 1 1 0 121.88 1136.15)" fill="#A2BDF4"/>
<rect width="82.5009" height="18.9529" rx="7" transform="matrix(0 1 1 0 26 1139.49)" fill="#A2BDF4"/>
<rect width="16.7231" height="4.45951" rx="2.22975" transform="matrix(0 1 1 0 51.6426 1235.37)" fill="#283F73"/>
<path d="M67 1215.15V1266.15C67 1274.43 73.7157 1281.15 82 1281.15H122V1215.15H67Z" fill="#F5A1C3"/>
<rect width="12.2636" height="12.2636" transform="matrix(0 1 1 0 54.9873 1237.6)" fill="#283F73"/>
<circle cx="28.4293" cy="28.4293" r="28.4293" transform="matrix(0 1 1 0 120.765 1151.75)" fill="#F5A1C3"/>
<circle cx="20.0678" cy="20.0678" r="20.0678" transform="matrix(0 1 1 0 137.487 1235.37)" fill="#283F73"/>
<circle cx="11.7062" cy="11.7062" r="11.7062" transform="matrix(0 1 1 0 82.8584 1243.17)" fill="white"/>
<rect width="30" height="30" transform="matrix(0 1 1 0 59 1166.15)" fill="white"/>
<rect width="100" height="10" transform="matrix(0 1 1 0 131.001 1039.15)" fill="#925948"/>
<rect width="100" height="10" transform="matrix(0 1 1 0 132.001 856.147)" fill="#925948"/>
<path d="M99 946.147V1056.15L159 1044.22V957.697L99 946.147Z" fill="#F5A1C3"/>
<circle cx="15.5" cy="15.5" r="15.5" transform="matrix(0 1 1 0 147.001 948.147)" fill="#E9644D"/>
<circle cx="15.5" cy="15.5" r="15.5" transform="matrix(0 1 1 0 147.001 1025.15)" fill="#E9644D"/>
<rect width="131" height="22" rx="10" transform="matrix(0 1 1 0 85 935.147)" fill="#2B885C"/>
<rect width="40" height="29" transform="matrix(0 1 1 0 56 959.147)" fill="#E9644D"/>
<rect width="100" height="10" transform="matrix(0 1 1 0 132.001 635.147)" fill="#925948"/>
<rect width="100" height="10" transform="matrix(0 1 1 0 132.001 222.147)" fill="#925948"/>
<rect width="40" height="18" transform="matrix(0 1 1 0 67 1002.15)" fill="#F5A1C3"/>
<rect x="132.001" y="506.147" width="100" height="10" transform="rotate(-90 132.001 506.147)" fill="#925948"/>
<path d="M99 416.147V306.147L159 318.075V404.597L99 416.147Z" fill="#A2BDF4"/>
<circle cx="162.501" cy="398.647" r="15.5" transform="rotate(-90 162.501 398.647)" fill="#283F73"/>
<circle cx="162.501" cy="321.647" r="15.5" transform="rotate(-90 162.501 321.647)" fill="#283F73"/>
<path d="M117 519.147V544.694C117 544.694 93.2368 547.289 93.2368 570.647C93.2368 594.005 117 596.519 117 596.519V619.147H75V519.147H117Z" fill="#F5A1C3"/>
<path d="M24 571.147L75 607.52V534.774L24 571.147Z" fill="#2B885C"/>
<rect width="129" height="40" transform="matrix(0 1 1 0 117 506.147)" fill="#F28448"/>
<circle cx="15.5" cy="15.5" r="15.5" transform="matrix(0 1 1 0 147.001 599.147)" fill="#2B885C"/>
<circle cx="15.5" cy="15.5" r="15.5" transform="matrix(0 1 1 0 147.001 511.147)" fill="#2B885C"/>
<rect width="129" height="25" transform="matrix(0 1 1 0 132.001 733.147)" fill="#283F73"/>
<rect width="128" height="25" transform="matrix(0 1 1 0 132.001 100.147)" fill="#283F73"/>
<circle cx="15.5" cy="15.5" r="15.5" transform="matrix(0 1 1 0 147.001 826.147)" fill="#A2BDF4"/>
<circle cx="15.5" cy="15.5" r="15.5" transform="matrix(0 1 1 0 147.001 738.147)" fill="#A2BDF4"/>
<circle cx="14.5" cy="14.5" r="14.5" transform="matrix(0 1 1 0 149.001 190.147)" fill="#F5A1C3"/>
<circle cx="14.5" cy="14.5" r="14.5" transform="matrix(0 1 1 0 149.001 108.147)" fill="#F5A1C3"/>
<circle cx="77" cy="381.147" r="22" transform="rotate(-90 77 381.147)" fill="#2B885C"/>
<circle cx="110.5" cy="361.647" r="16.5" transform="rotate(-90 110.5 361.647)" fill="#2B885C"/>
<ellipse cx="74.5" cy="336.147" rx="25" ry="24.5" transform="rotate(-90 74.5 336.147)" fill="#2B885C"/>
<path d="M40.3473 782.034L34.8145 784.983L38.6018 795.357L43.7667 792.138L40.3473 782.034Z" fill="white"/>
<path d="M63.0694 804.204L59.4308 807.48C58.7212 808.119 58.5447 809.161 59.0078 809.978L61.2445 813.923C61.8583 815.006 63.3123 815.242 64.2691 814.413L68.0745 811.12C68.8268 810.469 69.0052 809.373 68.4946 808.539L66.0912 804.611C65.4473 803.559 64.0021 803.364 63.0694 804.204Z" fill="white" stroke="white"/>
<ellipse cx="18.9455" cy="15.7936" rx="18.9455" ry="15.7936" transform="matrix(0.516537 0.856265 0.809774 -0.586741 0.923828 784.674)" fill="white"/>
<path d="M32.5872 776.1C32.7262 778.685 30.6029 782.79 29.1035 783.783C27.604 784.777 23.7754 780.882 21.6835 784.724C20.4801 786.935 21.6391 788.783 22.8409 789.955C23.7117 790.804 24.1089 792.208 23.4858 793.212C21.5313 796.363 20.624 797.48 18.2178 801.509C15.3846 806.251 11.9351 805.741 11.9351 805.741C11.9351 805.741 -2.1742 801.531 7.82006 782.322C17.8143 763.114 30.3339 771.7 30.3339 771.7C32.4326 773.226 32.448 773.513 32.5861 776.08L32.5872 776.1Z" fill="#925948"/>
<rect width="30" height="46" transform="matrix(0 1 1 0 86 811.147)" fill="#F5A1C3"/>
<rect width="35" height="18" transform="matrix(0 1 1 0 114 756.147)" fill="#F5A1C3"/>
<path d="M103.286 763.189L103 771.527H107.041C108.336 771.527 109.303 772.744 109.148 774.031C108.885 776.221 108.857 779.16 110.443 779.857C115.915 782.26 115.146 769.108 114.661 764.058C114.558 762.989 113.604 762.226 112.534 762.326L103.286 763.189Z" fill="white" stroke="white"/>
<path d="M56 826.647L81.5 844.4V808.893L56 826.647Z" fill="#283F73"/>
<path d="M77.949 777.57L73.3419 763.279C72.2665 759.943 68.208 758.671 65.4785 760.813L40.9434 780.073C39.2957 781.366 38.6468 783.565 39.3211 785.571L41.5474 792.195C42.0247 793.614 43.6605 794.274 44.9688 793.575C46.1021 792.969 47.5217 793.376 48.1806 794.496L56.2714 808.248C57.8369 810.909 61.3883 811.569 63.7524 809.639L65.0431 808.585C66.8598 807.102 67.3788 804.536 66.2883 802.43L63.6736 797.38C62.5308 795.172 63.1606 792.479 65.1553 791.043L76.1441 783.131C77.8864 781.877 78.6144 779.634 77.949 777.57Z" fill="#A2BDF4"/>
<circle cx="2" cy="2" r="2" transform="matrix(0 1 1 0 22 800.147)" fill="#925948"/>
<circle cx="2" cy="2" r="2" transform="matrix(0 1 1 0 25 808.147)" fill="#925948"/>
<path d="M30.5 799.147C30.5 801.145 31.9038 802.647 33.5 802.647C35.0962 802.647 36.5 801.145 36.5 799.147C36.5 797.149 35.0962 795.647 33.5 795.647C31.9038 795.647 30.5 797.149 30.5 799.147Z" fill="#F5A1C3" stroke="#F5A1C3"/>
<path d="M33 133.785L51.6695 144.118L72.7224 155.77L93.7752 167.422V100.147L72.7224 111.799L51.6695 123.451L33 133.785Z" fill="#F5A1C3"/>
<rect width="128.05" height="51.0252" transform="matrix(0 1 1 0 93.7754 100.147)" fill="#F5A1C3"/>
<path d="M122.7 180.747C124.877 180.747 127.032 180.319 129.043 179.486C131.054 178.653 132.881 177.432 134.42 175.893C135.96 174.353 137.18 172.526 138.013 170.515C138.846 168.504 139.275 166.349 139.275 164.172C139.275 161.996 138.846 159.84 138.013 157.829C137.18 155.818 135.96 153.991 134.42 152.452C132.881 150.913 131.054 149.692 129.043 148.859C127.032 148.026 124.877 147.597 122.7 147.597L122.7 152.466C124.237 152.466 125.76 152.768 127.18 153.357C128.6 153.945 129.891 154.807 130.978 155.894C132.065 156.981 132.927 158.272 133.516 159.692C134.104 161.113 134.407 162.635 134.407 164.172C134.407 165.71 134.104 167.232 133.516 168.652C132.927 170.073 132.065 171.363 130.978 172.45C129.891 173.537 128.6 174.4 127.18 174.988C125.76 175.576 124.237 175.879 122.7 175.879V180.747Z" fill="#283F73"/>
<circle cx="9.58754" cy="9.58754" r="9.58754" transform="matrix(0 1 1 0 103.525 122.247)" fill="#283F73"/>
<circle cx="9.58754" cy="9.58754" r="9.58754" transform="matrix(0 1 1 0 103.525 186.922)" fill="#283F73"/>
<rect width="60.7752" height="39.3251" transform="matrix(0 1 1 0 54.4502 167.422)" fill="#F5A1C3"/>
<rect x="85" y="427.147" width="131" height="18" rx="9" transform="rotate(-90 85 427.147)" fill="#283F73"/>
<rect width="69.1223" height="76.9265" transform="matrix(0 1 1 0 44.9531 1146.18)" fill="#283F73"/>
<rect width="153.853" height="27.8719" rx="7" transform="matrix(0 1 1 0 121.88 1136.15)" fill="#A2BDF4"/>
<rect width="82.5009" height="18.9529" rx="7" transform="matrix(0 1 1 0 26 1139.49)" fill="#A2BDF4"/>
<rect width="16.7231" height="4.45951" rx="2.22975" transform="matrix(0 1 1 0 51.6426 1235.37)" fill="#283F73"/>
<path d="M67 1215.15V1266.15C67 1274.43 73.7157 1281.15 82 1281.15H122V1215.15H67Z" fill="#F5A1C3"/>
<rect width="12.2636" height="12.2636" transform="matrix(0 1 1 0 54.9873 1237.6)" fill="#283F73"/>
<circle cx="28.4293" cy="28.4293" r="28.4293" transform="matrix(0 1 1 0 120.765 1151.75)" fill="#F5A1C3"/>
<circle cx="20.0678" cy="20.0678" r="20.0678" transform="matrix(0 1 1 0 137.487 1235.37)" fill="#283F73"/>
<circle cx="11.7062" cy="11.7062" r="11.7062" transform="matrix(0 1 1 0 82.8584 1243.17)" fill="white"/>
<rect width="30" height="30" transform="matrix(0 1 1 0 59 1166.15)" fill="white"/>
<rect width="100" height="10" transform="matrix(0 1 1 0 131.001 1039.15)" fill="#925948"/>
<rect width="100" height="10" transform="matrix(0 1 1 0 132.001 856.147)" fill="#925948"/>
<path d="M99 946.147V1056.15L159 1044.22V957.697L99 946.147Z" fill="#F5A1C3"/>
<circle cx="15.5" cy="15.5" r="15.5" transform="matrix(0 1 1 0 147.001 948.147)" fill="#E9644D"/>
<circle cx="15.5" cy="15.5" r="15.5" transform="matrix(0 1 1 0 147.001 1025.15)" fill="#E9644D"/>
<rect width="131" height="22" rx="10" transform="matrix(0 1 1 0 85 935.147)" fill="#2B885C"/>
<rect width="40" height="29" transform="matrix(0 1 1 0 56 959.147)" fill="#E9644D"/>
<rect width="100" height="10" transform="matrix(0 1 1 0 132.001 635.147)" fill="#925948"/>
<rect width="100" height="10" transform="matrix(0 1 1 0 132.001 222.147)" fill="#925948"/>
<rect width="100" height="10" transform="matrix(0 1 1 0 131.982 0)" fill="#925948"/>
<rect width="40" height="18" transform="matrix(0 1 1 0 67 1002.15)" fill="#F5A1C3"/>
<rect x="132.001" y="506.147" width="100" height="10" transform="rotate(-90 132.001 506.147)" fill="#925948"/>
<path d="M99 416.147V306.147L159 318.075V404.597L99 416.147Z" fill="#A2BDF4"/>
<circle cx="162.501" cy="398.647" r="15.5" transform="rotate(-90 162.501 398.647)" fill="#283F73"/>
<circle cx="162.501" cy="321.647" r="15.5" transform="rotate(-90 162.501 321.647)" fill="#283F73"/>
<path d="M117 519.147V544.694C117 544.694 93.2368 547.289 93.2368 570.647C93.2368 594.005 117 596.519 117 596.519V619.147H75V519.147H117Z" fill="#F5A1C3"/>
<path d="M24 571.147L75 607.52V534.774L24 571.147Z" fill="#2B885C"/>
<rect width="129" height="40" transform="matrix(0 1 1 0 117 506.147)" fill="#F28448"/>
<circle cx="15.5" cy="15.5" r="15.5" transform="matrix(0 1 1 0 147.001 599.147)" fill="#2B885C"/>
<circle cx="15.5" cy="15.5" r="15.5" transform="matrix(0 1 1 0 147.001 511.147)" fill="#2B885C"/>
<rect width="129" height="25" transform="matrix(0 1 1 0 132.001 733.147)" fill="#283F73"/>
<rect width="128" height="25" transform="matrix(0 1 1 0 132.001 100.147)" fill="#283F73"/>
<circle cx="15.5" cy="15.5" r="15.5" transform="matrix(0 1 1 0 147.001 826.147)" fill="#A2BDF4"/>
<circle cx="15.5" cy="15.5" r="15.5" transform="matrix(0 1 1 0 147.001 738.147)" fill="#A2BDF4"/>
<circle cx="14.5" cy="14.5" r="14.5" transform="matrix(0 1 1 0 149.001 190.147)" fill="#F5A1C3"/>
<circle cx="14.5" cy="14.5" r="14.5" transform="matrix(0 1 1 0 149.001 108.147)" fill="#F5A1C3"/>
<circle cx="77" cy="381.147" r="22" transform="rotate(-90 77 381.147)" fill="#2B885C"/>
<circle cx="110.5" cy="361.647" r="16.5" transform="rotate(-90 110.5 361.647)" fill="#2B885C"/>
<ellipse cx="74.5" cy="336.147" rx="25" ry="24.5" transform="rotate(-90 74.5 336.147)" fill="#2B885C"/>
<path d="M40.3473 782.034L34.8145 784.983L38.6018 795.357L43.7667 792.138L40.3473 782.034Z" fill="white"/>
<ellipse cx="18.9455" cy="15.7936" rx="18.9455" ry="15.7936" transform="matrix(0.516537 0.856265 0.809774 -0.586741 0.923828 784.674)" fill="white"/>
<path d="M32.5872 776.1C32.7262 778.685 30.6029 782.79 29.1035 783.783C27.604 784.777 23.7754 780.882 21.6835 784.724C20.4801 786.935 21.6391 788.783 22.8409 789.955C23.7117 790.804 24.1089 792.208 23.4858 793.212C21.5313 796.363 20.624 797.48 18.2178 801.509C15.3846 806.251 11.9351 805.741 11.9351 805.741C11.9351 805.741 -2.1742 801.531 7.82006 782.322C17.8143 763.114 30.3339 771.7 30.3339 771.7C32.4326 773.226 32.448 773.513 32.5861 776.08L32.5872 776.1Z" fill="#925948"/>
<rect width="30" height="46" transform="matrix(0 1 1 0 86 811.147)" fill="#F5A1C3"/>
<rect width="35" height="18" transform="matrix(0 1 1 0 114 756.147)" fill="#F5A1C3"/>
<path d="M103.286 763.189L103 771.527H107.041C108.336 771.527 109.303 772.744 109.148 774.031C108.885 776.221 108.857 779.16 110.443 779.857C115.915 782.26 115.146 769.108 114.661 764.058C114.558 762.989 113.604 762.226 112.534 762.326L103.286 763.189Z" fill="white" stroke="white"/>
<path d="M56 826.647L81.5 844.4V808.893L56 826.647Z" fill="#283F73"/>
<path d="M71.0898 813.526C71.0898 813.526 69.1278 811.398 68.4145 810.935L68.1245 809.249L62.1833 813.618L63.3906 814.364C63.4995 814.431 63.6017 814.511 63.6955 814.602C64.1241 815.016 64.3438 815.628 64.3267 816.253C64.2963 817.366 64.3422 819.013 64.8822 818.997C65.8611 818.967 65.9898 816.484 65.9898 816.484C65.9898 816.484 67.2265 818.863 68.0244 819.047C69.0292 819.28 67.3994 815.407 67.3994 815.407C67.3994 815.407 69.5216 819.236 70.3045 818.927C71.1066 818.61 68.6076 814.484 68.6076 814.484C68.6076 814.484 70.702 816.978 71.3612 816.962C72.3559 816.939 69.3338 813.273 69.3338 813.273C69.3338 813.273 71.7518 815.032 71.6652 814.527C71.5954 814.12 71.0898 813.526 71.0898 813.526Z" fill="white" stroke="white"/>
<path d="M73.9917 781.448L68.0412 760.291C78.0095 758.216 78.0615 758.389 84.3236 762.916C84.3236 762.916 104.597 761.664 105.264 762.916C105.93 764.167 106.831 769.013 105.264 771.375C103.696 773.737 73.9917 781.448 73.9917 781.448Z" fill="#283F73" stroke="#283F73"/>
<path d="M78.395 778.953L72.4529 760.522C71.8076 758.52 69.3726 757.756 67.7349 759.042L39.8451 780.935C38.8564 781.711 38.4671 783.031 38.8716 784.234L41.5474 792.195C42.0247 793.614 43.6605 794.274 44.9688 793.575C46.1021 792.969 47.5217 793.376 48.1806 794.496L57.4635 810.274C58.4028 811.871 60.5337 812.267 61.9521 811.109L66.2892 807.568C67.3791 806.678 67.6906 805.138 67.0363 803.875L62.8786 795.844C62.1929 794.52 62.5708 792.904 63.7676 792.042L77.3121 782.29C78.3575 781.537 78.7943 780.192 78.395 778.953Z" fill="#A2BDF4"/>
<circle cx="2" cy="2" r="2" transform="matrix(0 1 1 0 22 800.147)" fill="#925948"/>
<circle cx="2" cy="2" r="2" transform="matrix(0 1 1 0 25 808.147)" fill="#925948"/>
<circle cx="3.5" cy="3.5" r="3" transform="matrix(0 1 1 0 30 795.147)" fill="#F5A1C3" stroke="#F5A1C3"/>
<path d="M33 133.785L51.6695 144.118L72.7224 155.77L93.7752 167.422V100.147L72.7224 111.799L51.6695 123.451L33 133.785Z" fill="#F5A1C3"/>
<rect width="128.05" height="51.0252" transform="matrix(0 1 1 0 93.7754 100.147)" fill="#F5A1C3"/>
<path d="M122.7 180.747C124.877 180.747 127.032 180.319 129.043 179.486C131.054 178.653 132.881 177.432 134.42 175.893C135.96 174.353 137.18 172.526 138.013 170.515C138.846 168.504 139.275 166.349 139.275 164.172C139.275 161.996 138.846 159.84 138.013 157.829C137.18 155.818 135.96 153.991 134.42 152.452C132.881 150.913 131.054 149.692 129.043 148.859C127.032 148.026 124.877 147.597 122.7 147.597L122.7 152.466C124.237 152.466 125.76 152.768 127.18 153.357C128.6 153.945 129.891 154.807 130.978 155.894C132.065 156.981 132.927 158.272 133.516 159.692C134.104 161.113 134.407 162.635 134.407 164.172C134.407 165.71 134.104 167.232 133.516 168.652C132.927 170.073 132.065 171.363 130.978 172.45C129.891 173.537 128.6 174.4 127.18 174.988C125.76 175.576 124.237 175.879 122.7 175.879V180.747Z" fill="#283F73"/>
<circle cx="9.58754" cy="9.58754" r="9.58754" transform="matrix(0 1 1 0 103.525 122.247)" fill="#283F73"/>
<circle cx="9.58754" cy="9.58754" r="9.58754" transform="matrix(0 1 1 0 103.525 186.922)" fill="#283F73"/>
<rect width="60.7752" height="39.3251" transform="matrix(0 1 1 0 54.4502 167.422)" fill="#F5A1C3"/>
<rect x="85" y="427.147" width="131" height="18" rx="9" transform="rotate(-90 85 427.147)" fill="#283F73"/>
</svg>
