<svg width="682" height="706" viewBox="0 0 682 706" fill="none" xmlns="http://www.w3.org/2000/svg">
<rect x="309.5" y="605.632" width="63" height="100" fill="#925948"/>
<path d="M170.576 167.537C170.576 132.746 345.887 0.631836 345.887 0.631836C345.887 0.631836 504.617 126.314 517.114 167.537C529.611 208.761 422.277 162.648 420.214 170.352C418.152 178.055 424.536 183.461 473.802 218.893C523.068 254.325 584.356 277.678 560.426 319.036C544.15 347.166 461.427 302.346 446.99 302.346C432.553 302.346 504.263 374.667 570.262 402.912C636.262 431.158 643.809 478.124 614.222 492.968C584.636 507.812 486.177 472.988 473.802 478.124C461.427 483.259 541.302 520.128 586.676 541.954C632.051 563.78 722.403 620.801 660.529 656.75C598.655 692.699 356.283 607.911 345.929 607.911C335.575 607.911 109.213 667.674 29.8499 656.75C-49.5137 645.826 51.8358 563.78 101.356 541.954C150.876 520.128 217.272 478.124 194.553 478.124C171.833 478.124 85.4128 508.374 58.5684 492.968C31.724 477.561 41.5233 439.57 101.356 411.324C161.189 383.079 236.754 306.424 226.305 302.346C215.855 298.267 145.746 347.969 121.077 319.036C91.2148 284.013 164.016 253.091 209.763 218.893C255.511 184.694 246.133 184.206 255.511 170.352C264.889 156.497 170.576 202.329 170.576 167.537Z" fill="#2B885C" stroke="#2B885C"/>
</svg>
